G04*
G04 #@! TF.GenerationSoftware,Altium Limited,Altium Designer,19.1.8 (144)*
G04*
G04 Layer_Color=39423*
%FSLAX25Y25*%
%MOIN*%
G70*
G01*
G75*
%ADD10C,0.01000*%
%ADD11C,0.00984*%
%ADD13C,0.00787*%
%ADD14C,0.00700*%
%ADD15C,0.00500*%
%ADD158C,0.01968*%
G36*
X-125983Y-106299D02*
X-126222D01*
Y-105293D01*
X-126474Y-106299D01*
X-126724D01*
X-126975Y-105293D01*
X-126977Y-106299D01*
X-127216D01*
Y-105019D01*
X-126827D01*
X-126600Y-105894D01*
X-126370Y-105019D01*
X-125983D01*
Y-106299D01*
D02*
G37*
G36*
X-124803Y-105236D02*
X-125182D01*
Y-106299D01*
X-125441D01*
Y-105236D01*
X-125819D01*
Y-105019D01*
X-124803D01*
Y-105236D01*
D02*
G37*
D10*
X-47151Y-71653D02*
G03*
X-47151Y-71653I-440J0D01*
G01*
X-54843Y-104724D02*
G03*
X-59842Y-109724I0J-5000D01*
G01*
Y-121772D02*
G03*
X-54843Y-126772I5000J0D01*
G01*
X-38583Y-109724D02*
G03*
X-43583Y-104724I-5000J0D01*
G01*
Y-126772D02*
G03*
X-38583Y-121772I0J5000D01*
G01*
X-28650Y-118618D02*
X-22744D01*
X-28650Y-115665D02*
X-25697Y-118618D01*
X-28650Y-115665D02*
X-22744D01*
X-25697Y-118618D02*
X-22744Y-115665D01*
X-25697Y-118618D02*
X-25697D01*
X-13386Y-104882D02*
X-11575Y-106693D01*
X-13386Y-104882D02*
Y-98504D01*
X-11575Y-96693D01*
X-13386Y-94882D02*
X-11575Y-96693D01*
X-13386Y-94882D02*
Y-88504D01*
X-11575Y-86693D01*
X-13386Y-84882D02*
X-11575Y-86693D01*
X-13386Y-84882D02*
Y-78504D01*
X-11575Y-76693D01*
X-3701D01*
X-1890Y-78504D01*
Y-84882D02*
Y-78504D01*
X-3701Y-86693D02*
X-1890Y-84882D01*
X-3701Y-86693D02*
X-1890Y-88504D01*
Y-94882D02*
Y-88504D01*
X-3701Y-96693D02*
X-1890Y-94882D01*
X-3701Y-96693D02*
X-1890Y-98504D01*
Y-104882D02*
Y-98504D01*
X-3701Y-106693D02*
X-1890Y-104882D01*
X-11575Y-106693D02*
X-3701D01*
X-54843Y-104724D02*
X-54724D01*
X-59842Y-121772D02*
Y-109724D01*
X-54843Y-126772D02*
X-54724D01*
X-43701Y-104724D02*
X-43583D01*
X-38583Y-121772D02*
Y-109724D01*
X-43701Y-126772D02*
X-43583D01*
X-144882Y-124016D02*
X-140641Y-119774D01*
X-147709Y-121188D01*
X-143468Y-116947D01*
X-147709Y-112706D02*
X-144882Y-115533D01*
X-149123Y-119774D01*
X-151951Y-116947D01*
X-147002Y-117654D02*
X-148416Y-116240D01*
X-152657Y-109171D02*
X-151244D01*
X-149830Y-110585D01*
Y-111999D01*
X-152657Y-114826D01*
X-154071D01*
X-155485Y-113413D01*
Y-111999D01*
X-154071Y-110585D01*
X-152657Y-111999D01*
X-124016Y-121503D02*
X-120017D01*
X-122016Y-123502D02*
Y-119504D01*
X-94488Y-121503D02*
X-90490D01*
X-183465Y-121109D02*
X-179466D01*
X-212992Y-121897D02*
X-208993D01*
X-210993Y-123896D02*
Y-119897D01*
X-157480Y-173228D02*
X-163478D01*
X-157480Y-177227D01*
X-163478D01*
Y-183225D02*
Y-179226D01*
X-157480D01*
Y-183225D01*
X-160479Y-179226D02*
Y-181226D01*
X-162479Y-189223D02*
X-163478Y-188224D01*
Y-186224D01*
X-162479Y-185224D01*
X-158480D01*
X-157480Y-186224D01*
Y-188224D01*
X-158480Y-189223D01*
X-160479D01*
Y-187224D01*
X-157480Y-191223D02*
X-161479D01*
X-163478Y-193222D01*
X-161479Y-195221D01*
X-157480D01*
X-160479D01*
Y-191223D01*
X-163478Y-197221D02*
Y-201219D01*
Y-199220D01*
X-157480D01*
X-163478Y-203219D02*
Y-205218D01*
Y-204218D01*
X-157480D01*
Y-203219D01*
Y-205218D01*
X-163478Y-208217D02*
X-159480D01*
X-157480Y-210216D01*
X-159480Y-212216D01*
X-163478D01*
Y-218214D02*
Y-214215D01*
X-157480D01*
Y-218214D01*
X-160479Y-214215D02*
Y-216214D01*
D11*
X-34350Y-133858D02*
G03*
X-34350Y-133858I-492J0D01*
G01*
X-31004Y-127953D02*
G03*
X-31004Y-127953I-492J0D01*
G01*
D13*
X-188583Y-75197D02*
X-186221D01*
X-188583Y-68898D02*
X-186221D01*
X-144443Y-68898D02*
X-142081D01*
X-144443Y-75197D02*
X-142081D01*
X-227658Y-49213D02*
X-225295D01*
X-227658Y-42913D02*
X-225295D01*
X-104724Y-27165D02*
X-102362D01*
X-104724Y-33465D02*
X-102362D01*
X-144488Y-59842D02*
X-142126D01*
X-144488Y-66142D02*
X-142126D01*
X-188583Y-66142D02*
X-186221D01*
X-188583Y-59842D02*
X-186221D01*
X-104724Y-35433D02*
X-102362D01*
X-104724Y-41732D02*
X-102362D01*
X-104724Y-43701D02*
X-102362D01*
X-104724Y-50000D02*
X-102362D01*
X-83858Y-97638D02*
Y-95276D01*
X-77559Y-97638D02*
Y-95276D01*
X-52362Y-134646D02*
X-37402D01*
X-52362Y-146457D02*
X-37402D01*
X-227658Y-40945D02*
X-225295D01*
X-227658Y-34646D02*
X-225295D01*
X-227658Y-32677D02*
X-225295D01*
X-227658Y-26378D02*
X-225295D01*
X-35059Y-59252D02*
X-32677D01*
X-46063D02*
X-43681D01*
X-35059Y-72638D02*
X-32677D01*
X-46063D02*
X-43681D01*
X-32677Y-60039D02*
Y-59252D01*
Y-72638D02*
Y-71850D01*
X-46063Y-60039D02*
Y-59252D01*
Y-72638D02*
Y-71850D01*
D14*
X-74606Y-235630D02*
Y-215748D01*
X-59331D01*
X-42323D01*
Y-235630D02*
Y-215748D01*
X-35677Y-207698D02*
X-29677D01*
X-35677Y-217498D02*
X-29677D01*
Y-214338D01*
X-35677Y-217498D02*
Y-214338D01*
Y-210888D02*
Y-207698D01*
X-29677Y-210888D02*
Y-207698D01*
X-48643Y-67961D02*
Y-61961D01*
X-58443Y-67961D02*
Y-61961D01*
Y-67961D02*
X-55283D01*
X-58443Y-61961D02*
X-55283D01*
X-51833D02*
X-48643D01*
X-51833Y-67961D02*
X-48643D01*
X-79703Y-107237D02*
X-76512D01*
X-79703Y-113237D02*
X-76512D01*
X-73062D02*
X-69902D01*
X-73062Y-107237D02*
X-69902D01*
Y-113237D02*
Y-107237D01*
X-79703Y-113237D02*
Y-107237D01*
X-68063Y-25006D02*
Y-21816D01*
X-74063Y-25006D02*
Y-21816D01*
Y-31616D02*
Y-28456D01*
X-68063Y-31616D02*
Y-28456D01*
X-74063Y-31616D02*
X-68063D01*
X-74063Y-21816D02*
X-68063D01*
X-24865Y-39670D02*
X-21675D01*
X-24865Y-33670D02*
X-21675D01*
X-31475D02*
X-28315D01*
X-31475Y-39670D02*
X-28315D01*
X-31475D02*
Y-33670D01*
X-21675Y-39670D02*
Y-33670D01*
X-38644Y-39670D02*
X-35454D01*
X-38644Y-33670D02*
X-35454D01*
X-45254D02*
X-42094D01*
X-45254Y-39670D02*
X-42094D01*
X-45254D02*
Y-33670D01*
X-35454Y-39670D02*
Y-33670D01*
X-52424Y-39670D02*
X-49234D01*
X-52424Y-33670D02*
X-49234D01*
X-59034D02*
X-55874D01*
X-59034Y-39670D02*
X-55874D01*
X-59034D02*
Y-33670D01*
X-49234Y-39670D02*
Y-33670D01*
X-24865Y-170323D02*
X-21675D01*
X-24865Y-164323D02*
X-21675D01*
X-31475D02*
X-28315D01*
X-31475Y-170323D02*
X-28315D01*
X-31475D02*
Y-164323D01*
X-21675Y-170323D02*
Y-164323D01*
X-56150Y-159428D02*
Y-156238D01*
X-50150Y-159428D02*
Y-156238D01*
Y-152788D02*
Y-149628D01*
X-56150Y-152788D02*
Y-149628D01*
X-50150D01*
X-56150Y-159428D02*
X-50150D01*
X-36676Y-97488D02*
X-33486D01*
X-36676Y-91488D02*
X-33486D01*
X-43286D02*
X-40126D01*
X-43286Y-97488D02*
X-40126D01*
X-43286D02*
Y-91488D01*
X-33486Y-97488D02*
Y-91488D01*
X-48487Y-89614D02*
X-45297D01*
X-48487Y-83614D02*
X-45297D01*
X-55097D02*
X-51937D01*
X-55097Y-89614D02*
X-51937D01*
X-55097D02*
Y-83614D01*
X-45297Y-89614D02*
Y-83614D01*
X-65008Y-61002D02*
Y-57812D01*
X-59008Y-61002D02*
Y-57812D01*
Y-54362D02*
Y-51202D01*
X-65008Y-54362D02*
Y-51202D01*
X-59008D01*
X-65008Y-61002D02*
X-59008D01*
X-66976Y-45254D02*
Y-42064D01*
X-60976Y-45254D02*
Y-42064D01*
Y-38614D02*
Y-35454D01*
X-66976Y-38614D02*
Y-35454D01*
X-60976D01*
X-66976Y-45254D02*
X-60976D01*
X-80709Y-209646D02*
Y-186024D01*
Y-209646D02*
X-64173D01*
Y-154921D01*
X-80709D02*
X-64173D01*
X-80709Y-178150D02*
Y-154921D01*
X-73093Y-121111D02*
X-69902D01*
X-73093Y-115111D02*
X-69902D01*
X-79703D02*
X-76543D01*
X-79703Y-121111D02*
X-76543D01*
X-79703D02*
Y-115111D01*
X-69902Y-121111D02*
Y-115111D01*
X-80953Y-31616D02*
Y-28426D01*
X-74953Y-31616D02*
Y-28426D01*
Y-24976D02*
Y-21816D01*
X-80953Y-24976D02*
Y-21816D01*
X-74953D01*
X-80953Y-31616D02*
X-74953D01*
X-54283Y-25006D02*
Y-21816D01*
X-60283Y-25006D02*
Y-21816D01*
Y-31616D02*
Y-28456D01*
X-54283Y-31616D02*
Y-28456D01*
X-60283Y-31616D02*
X-54283D01*
X-60283Y-21816D02*
X-54283D01*
X-40504Y-25006D02*
Y-21816D01*
X-46504Y-25006D02*
Y-21816D01*
Y-31616D02*
Y-28456D01*
X-40504Y-31616D02*
Y-28456D01*
X-46504Y-31616D02*
X-40504D01*
X-46504Y-21816D02*
X-40504D01*
X-26724Y-25006D02*
Y-21816D01*
X-32724Y-25006D02*
Y-21816D01*
Y-31616D02*
Y-28456D01*
X-26724Y-31616D02*
Y-28456D01*
X-32724Y-31616D02*
X-26724D01*
X-32724Y-21816D02*
X-26724D01*
X-39614Y-31616D02*
Y-28426D01*
X-33614Y-31616D02*
Y-28426D01*
Y-24976D02*
Y-21816D01*
X-39614Y-24976D02*
Y-21816D01*
X-33614D01*
X-39614Y-31616D02*
X-33614D01*
X-53394D02*
Y-28426D01*
X-47394Y-31616D02*
Y-28426D01*
Y-24976D02*
Y-21816D01*
X-53394Y-24976D02*
Y-21816D01*
X-47394D01*
X-53394Y-31616D02*
X-47394D01*
X-67173D02*
Y-28426D01*
X-61173Y-31616D02*
Y-28426D01*
Y-24976D02*
Y-21816D01*
X-67173Y-24976D02*
Y-21816D01*
X-61173D01*
X-67173Y-31616D02*
X-61173D01*
X-36873Y-90008D02*
X-33683D01*
X-36873Y-84008D02*
X-33683D01*
X-43483D02*
X-40323D01*
X-43483Y-90008D02*
X-40323D01*
X-43483D02*
Y-84008D01*
X-33683Y-90008D02*
Y-84008D01*
X-13758Y-65898D02*
X-10568D01*
X-13758Y-71898D02*
X-10568D01*
X-7118D02*
X-3958D01*
X-7118Y-65898D02*
X-3958D01*
Y-71898D02*
Y-65898D01*
X-13758Y-71898D02*
Y-65898D01*
X-24865Y-97488D02*
X-21675D01*
X-24865Y-91488D02*
X-21675D01*
X-31475D02*
X-28315D01*
X-31475Y-97488D02*
X-28315D01*
X-31475D02*
Y-91488D01*
X-21675Y-97488D02*
Y-91488D01*
X-72109Y-70913D02*
X-68919D01*
X-72109Y-64913D02*
X-68919D01*
X-78719D02*
X-75559D01*
X-78719Y-70913D02*
X-75559D01*
X-78719D02*
Y-64913D01*
X-68919Y-70913D02*
Y-64913D01*
X-66908Y-80661D02*
X-63718D01*
X-66908Y-86661D02*
X-63718D01*
X-60268D02*
X-57108D01*
X-60268Y-80661D02*
X-57108D01*
Y-86661D02*
Y-80661D01*
X-66908Y-86661D02*
Y-80661D01*
X-72109Y-78787D02*
X-68919D01*
X-72109Y-72787D02*
X-68919D01*
X-78719D02*
X-75559D01*
X-78719Y-78787D02*
X-75559D01*
X-78719D02*
Y-72787D01*
X-68919Y-78787D02*
Y-72787D01*
X-101750Y-89520D02*
X-98560D01*
X-101750Y-95520D02*
X-98560D01*
X-95110D02*
X-91950D01*
X-95110Y-89520D02*
X-91950D01*
Y-95520D02*
Y-89520D01*
X-101750Y-95520D02*
Y-89520D01*
X-95913Y-20254D02*
Y-17064D01*
X-89913Y-20254D02*
Y-17064D01*
Y-13614D02*
Y-10454D01*
X-95913Y-13614D02*
Y-10454D01*
X-89913D01*
X-95913Y-20254D02*
X-89913D01*
X-72109Y-86661D02*
X-68919D01*
X-72109Y-80661D02*
X-68919D01*
X-78719D02*
X-75559D01*
X-78719Y-86661D02*
X-75559D01*
X-78719D02*
Y-80661D01*
X-68919Y-86661D02*
Y-80661D01*
X-150963Y-89520D02*
X-147773D01*
X-150963Y-95520D02*
X-147773D01*
X-144323D02*
X-141163D01*
X-144323Y-89520D02*
X-141163D01*
Y-95520D02*
Y-89520D01*
X-150963Y-95520D02*
Y-89520D01*
X-145057Y-2512D02*
X-141867D01*
X-145057Y-8512D02*
X-141867D01*
X-138417D02*
X-135257D01*
X-138417Y-2512D02*
X-135257D01*
Y-8512D02*
Y-2512D01*
X-145057Y-8512D02*
Y-2512D01*
X-142764Y-20254D02*
Y-17064D01*
X-136764Y-20254D02*
Y-17064D01*
Y-13614D02*
Y-10454D01*
X-142764Y-13614D02*
Y-10454D01*
X-136764D01*
X-142764Y-20254D02*
X-136764D01*
X-199782Y-89520D02*
X-196592D01*
X-199782Y-95520D02*
X-196592D01*
X-193142D02*
X-189982D01*
X-193142Y-89520D02*
X-189982D01*
Y-95520D02*
Y-89520D01*
X-199782Y-95520D02*
Y-89520D01*
X-194861Y-2512D02*
X-191671D01*
X-194861Y-8512D02*
X-191671D01*
X-188221D02*
X-185061D01*
X-188221Y-2512D02*
X-185061D01*
Y-8512D02*
Y-2512D01*
X-194861Y-8512D02*
Y-2512D01*
X-192961Y-20254D02*
Y-17064D01*
X-186961Y-20254D02*
Y-17064D01*
Y-13614D02*
Y-10454D01*
X-192961Y-13614D02*
Y-10454D01*
X-186961D01*
X-192961Y-20254D02*
X-186961D01*
X-78719Y-57039D02*
X-75529D01*
X-78719Y-63039D02*
X-75529D01*
X-72079D02*
X-68919D01*
X-72079Y-57039D02*
X-68919D01*
Y-63039D02*
Y-57039D01*
X-78719Y-63039D02*
Y-57039D01*
Y-49165D02*
X-75529D01*
X-78719Y-55165D02*
X-75529D01*
X-72079D02*
X-68919D01*
X-72079Y-49165D02*
X-68919D01*
Y-55165D02*
Y-49165D01*
X-78719Y-55165D02*
Y-49165D01*
Y-41291D02*
X-75529D01*
X-78719Y-47291D02*
X-75529D01*
X-72079D02*
X-68919D01*
X-72079Y-41291D02*
X-68919D01*
Y-47291D02*
Y-41291D01*
X-78719Y-47291D02*
Y-41291D01*
Y-33417D02*
X-75529D01*
X-78719Y-39417D02*
X-75529D01*
X-72079D02*
X-68919D01*
X-72079Y-33417D02*
X-68919D01*
Y-39417D02*
Y-33417D01*
X-78719Y-39417D02*
Y-33417D01*
X-48181Y-201046D02*
Y-197856D01*
X-54181Y-201046D02*
Y-197856D01*
Y-207656D02*
Y-204496D01*
X-48181Y-207656D02*
Y-204496D01*
X-54181Y-207656D02*
X-48181D01*
X-54181Y-197856D02*
X-48181D01*
X-55268Y-201046D02*
Y-197856D01*
X-61268Y-201046D02*
Y-197856D01*
Y-207656D02*
Y-204496D01*
X-55268Y-207656D02*
Y-204496D01*
X-61268Y-207656D02*
X-55268D01*
X-61268Y-197856D02*
X-55268D01*
X-23669Y-70845D02*
Y-67655D01*
X-17669Y-70845D02*
Y-67655D01*
Y-64205D02*
Y-61045D01*
X-23669Y-64205D02*
Y-61045D01*
X-17669D01*
X-23669Y-70845D02*
X-17669D01*
X-61987Y-160386D02*
X-58797Y-160386D01*
X-61987Y-166386D02*
X-58797D01*
X-55347D02*
X-52187D01*
X-55347Y-160386D02*
X-52187D01*
Y-166386D02*
Y-160386D01*
X-61987Y-166386D02*
Y-160386D01*
Y-167276D02*
X-58797D01*
X-61987Y-173276D02*
X-58797D01*
X-55347D02*
X-52187D01*
X-55347Y-167276D02*
X-52187D01*
Y-173276D02*
Y-167276D01*
X-61987Y-173276D02*
Y-167276D01*
X-32739Y-180166D02*
X-29549D01*
X-32739Y-174166D02*
X-29549D01*
X-39349D02*
X-36189D01*
X-39349Y-180166D02*
X-36189D01*
X-39349D02*
Y-174166D01*
X-29549Y-180166D02*
Y-174166D01*
X-32739Y-193946D02*
X-29549D01*
X-32739Y-187946D02*
X-29549D01*
X-39349D02*
X-36189D01*
X-39349Y-193946D02*
X-36189D01*
X-39349D02*
Y-187946D01*
X-29549Y-193946D02*
Y-187946D01*
X-32739Y-187056D02*
X-29549D01*
X-32739Y-181056D02*
X-29549D01*
X-39349D02*
X-36189D01*
X-39349Y-187056D02*
X-36189D01*
X-39349D02*
Y-181056D01*
X-29549Y-187056D02*
Y-181056D01*
X-985Y-147244D02*
Y-131890D01*
X-17520Y-147244D02*
X-985D01*
X-17520D02*
Y-108268D01*
X-985D01*
Y-124016D02*
Y-108268D01*
X-80708Y-984D02*
X-57086D01*
X-80708Y-17519D02*
Y-984D01*
Y-17519D02*
X-25984D01*
Y-984D01*
X-49212D02*
X-25984D01*
X-984Y-212205D02*
Y-185039D01*
X-17520Y-212205D02*
X-984D01*
X-17520D02*
Y-149606D01*
X-984D01*
Y-176772D02*
Y-149606D01*
X-46860Y-178866D02*
Y-175466D01*
Y-177166D02*
X-45660Y-178366D01*
X-46860Y-177166D02*
X-45660Y-175966D01*
X-51160Y-174166D02*
X-47970D01*
X-51160Y-180166D02*
X-47970D01*
X-44520D02*
X-41360D01*
X-44520Y-174166D02*
X-41360D01*
Y-180166D02*
Y-174166D01*
X-51160Y-180166D02*
Y-174166D01*
X-51160Y-187946D02*
X-47970D01*
X-51160Y-193946D02*
X-47970D01*
X-44520D02*
X-41360D01*
X-44520Y-187946D02*
X-41360D01*
Y-193946D02*
Y-187946D01*
X-51160Y-193946D02*
Y-187946D01*
X-46860Y-190946D02*
X-45660Y-189746D01*
X-46860Y-190946D02*
X-45660Y-192146D01*
X-46860Y-192646D02*
Y-189246D01*
Y-185756D02*
Y-182356D01*
Y-184056D02*
X-45660Y-185256D01*
X-46860Y-184056D02*
X-45660Y-182856D01*
X-51160Y-181056D02*
X-47970D01*
X-51160Y-187056D02*
X-47970D01*
X-44520D02*
X-41360D01*
X-44520Y-181056D02*
X-41360D01*
Y-187056D02*
Y-181056D01*
X-51160Y-187056D02*
Y-181056D01*
X-97813Y-8512D02*
Y-2512D01*
X-88013Y-8512D02*
Y-2512D01*
X-91173D02*
X-88013D01*
X-91173Y-8512D02*
X-88013D01*
X-97813D02*
X-94623D01*
X-97813Y-2512D02*
X-94623D01*
X-27803Y-59624D02*
Y-56434D01*
X-21803Y-59624D02*
Y-56434D01*
Y-52984D02*
Y-49824D01*
X-27803Y-52984D02*
Y-49824D01*
X-21803D01*
X-27803Y-59624D02*
X-21803D01*
D15*
X-11811Y-153543D02*
X-13144D01*
X-13810Y-154210D01*
X-13144Y-154876D01*
X-11811D01*
X-12811D01*
Y-153543D01*
X-13810Y-155543D02*
X-11811D01*
Y-156542D01*
X-12144Y-156876D01*
X-13477D01*
X-13810Y-156542D01*
Y-155543D01*
X-13477Y-158875D02*
X-13810Y-158542D01*
Y-157875D01*
X-13477Y-157542D01*
X-12144D01*
X-11811Y-157875D01*
Y-158542D01*
X-12144Y-158875D01*
X-11811Y-160874D02*
Y-159541D01*
X-13144Y-160874D01*
X-13477D01*
X-13810Y-160541D01*
Y-159875D01*
X-13477Y-159541D01*
X-13810Y-171260D02*
Y-172593D01*
Y-171926D01*
X-11811D01*
X-13810Y-173259D02*
X-11811Y-174592D01*
X-13810D02*
X-11811Y-173259D01*
Y-163386D02*
X-13810D01*
Y-164385D01*
X-13477Y-164719D01*
X-12811D01*
X-12477Y-164385D01*
Y-163386D01*
Y-164052D02*
X-11811Y-164719D01*
X-13810Y-165385D02*
X-11811Y-166718D01*
X-13810D02*
X-11811Y-165385D01*
Y-179134D02*
X-13144D01*
X-13810Y-179800D01*
X-13144Y-180467D01*
X-11811D01*
X-12811D01*
Y-179134D01*
X-13810Y-181133D02*
X-11811D01*
Y-182133D01*
X-12144Y-182466D01*
X-13477D01*
X-13810Y-182133D01*
Y-181133D01*
X-13477Y-184466D02*
X-13810Y-184132D01*
Y-183466D01*
X-13477Y-183133D01*
X-12144D01*
X-11811Y-183466D01*
Y-184132D01*
X-12144Y-184466D01*
X-13477Y-188341D02*
X-13810Y-188007D01*
Y-187341D01*
X-13477Y-187008D01*
X-12144D01*
X-11811Y-187341D01*
Y-188007D01*
X-12144Y-188341D01*
X-12811D01*
Y-187674D01*
X-11811Y-189007D02*
X-13810D01*
X-11811Y-190340D01*
X-13810D01*
Y-191007D02*
X-11811D01*
Y-192006D01*
X-12144Y-192340D01*
X-13477D01*
X-13810Y-192006D01*
Y-191007D01*
X-13477Y-194882D02*
X-13810Y-195215D01*
Y-195882D01*
X-13477Y-196215D01*
X-13144D01*
X-12811Y-195882D01*
Y-195548D01*
Y-195882D01*
X-12477Y-196215D01*
X-12144D01*
X-11811Y-195882D01*
Y-195215D01*
X-12144Y-194882D01*
X-13810Y-196881D02*
X-12477D01*
X-11811Y-197548D01*
X-12477Y-198214D01*
X-13810D01*
X-13477Y-198881D02*
X-13810Y-199214D01*
Y-199880D01*
X-13477Y-200214D01*
X-13144D01*
X-12811Y-199880D01*
Y-199547D01*
Y-199880D01*
X-12477Y-200214D01*
X-12144D01*
X-11811Y-199880D01*
Y-199214D01*
X-12144Y-198881D01*
X-13810Y-204089D02*
Y-202756D01*
X-12811D01*
X-13144Y-203422D01*
Y-203756D01*
X-12811Y-204089D01*
X-12144D01*
X-11811Y-203756D01*
Y-203089D01*
X-12144Y-202756D01*
X-13810Y-204755D02*
X-12477D01*
X-11811Y-205422D01*
X-12477Y-206088D01*
X-13810D01*
X-17414Y-99758D02*
X-17747Y-99425D01*
Y-98758D01*
X-17414Y-98425D01*
X-16081D01*
X-15748Y-98758D01*
Y-99425D01*
X-16081Y-99758D01*
X-16748D01*
Y-99092D01*
X-15748Y-100425D02*
X-17747D01*
X-15748Y-101757D01*
X-17747D01*
Y-102424D02*
X-15748D01*
Y-103424D01*
X-16081Y-103757D01*
X-17414D01*
X-17747Y-103424D01*
Y-102424D01*
X-15748Y-78740D02*
X-17747D01*
Y-79740D01*
X-17414Y-80073D01*
X-16748D01*
X-16414Y-79740D01*
Y-78740D01*
X-17747Y-80739D02*
X-15748D01*
X-16414Y-81406D01*
X-15748Y-82072D01*
X-17747D01*
X-15748Y-82739D02*
X-17747D01*
X-17081Y-83405D01*
X-17747Y-84072D01*
X-15748D01*
X-17747Y-91884D02*
Y-90551D01*
X-16748D01*
X-17081Y-91218D01*
Y-91551D01*
X-16748Y-91884D01*
X-16081D01*
X-15748Y-91551D01*
Y-90884D01*
X-16081Y-90551D01*
X-17747Y-92550D02*
X-16414D01*
X-15748Y-93217D01*
X-16414Y-93883D01*
X-17747D01*
X-170472Y-125378D02*
X-169140D01*
X-166474D02*
X-165141D01*
X-162475D02*
X-161142D01*
X-158476D02*
X-157143D01*
X-154478D02*
X-153145D01*
X-150479D02*
X-149146D01*
X-99213Y-105875D02*
Y-107874D01*
X-100212D01*
X-100546Y-107541D01*
Y-107208D01*
Y-106874D01*
X-100212Y-106541D01*
X-99213D01*
X-101545D02*
X-102212D01*
X-102545Y-106874D01*
Y-107874D01*
X-101545D01*
X-101212Y-107541D01*
X-101545Y-107208D01*
X-102545D01*
X-103211Y-107874D02*
X-104211D01*
X-104544Y-107541D01*
X-104211Y-107208D01*
X-103544D01*
X-103211Y-106874D01*
X-103544Y-106541D01*
X-104544D01*
X-106210Y-107874D02*
X-105544D01*
X-105211Y-107541D01*
Y-106874D01*
X-105544Y-106541D01*
X-106210D01*
X-106544Y-106874D01*
Y-107208D01*
X-105211D01*
X-108543Y-105875D02*
Y-107874D01*
X-107543D01*
X-107210Y-107541D01*
Y-106874D01*
X-107543Y-106541D01*
X-108543D01*
X-111542Y-107874D02*
X-112208D01*
X-112542Y-107541D01*
Y-106874D01*
X-112208Y-106541D01*
X-111542D01*
X-111209Y-106874D01*
Y-107541D01*
X-111542Y-107874D01*
X-113208D02*
Y-106541D01*
X-114208D01*
X-114541Y-106874D01*
Y-107874D01*
X-117207Y-105875D02*
Y-107208D01*
X-117873Y-107874D01*
X-118540Y-107208D01*
Y-105875D01*
X-120539D02*
X-119206D01*
Y-107874D01*
X-120539D01*
X-119206Y-106874D02*
X-119873D01*
X-122538Y-106208D02*
X-122205Y-105875D01*
X-121539D01*
X-121205Y-106208D01*
Y-106541D01*
X-121539Y-106874D01*
X-122205D01*
X-122538Y-107208D01*
Y-107541D01*
X-122205Y-107874D01*
X-121539D01*
X-121205Y-107541D01*
X-124538Y-106208D02*
X-124205Y-105875D01*
X-123538D01*
X-123205Y-106208D01*
Y-107541D01*
X-123538Y-107874D01*
X-124205D01*
X-124538Y-107541D01*
X-129203Y-105875D02*
Y-107874D01*
Y-106874D01*
X-130536D01*
Y-105875D01*
Y-107874D01*
X-131202Y-105875D02*
Y-107874D01*
X-131869Y-107208D01*
X-132535Y-107874D01*
Y-105875D01*
X-136201Y-107874D02*
Y-105875D01*
X-135201Y-106874D01*
X-136534D01*
X-137200Y-107874D02*
Y-107541D01*
X-137533D01*
Y-107874D01*
X-137200D01*
X-138866D02*
X-139533D01*
X-139200D01*
Y-105875D01*
X-138866Y-106208D01*
X-141865Y-107874D02*
X-140533D01*
X-141865Y-106541D01*
Y-106208D01*
X-141532Y-105875D01*
X-140866D01*
X-140533Y-106208D01*
X-68433Y-204377D02*
X-68100Y-204044D01*
Y-203378D01*
X-68433Y-203044D01*
X-68767D01*
X-69100Y-203378D01*
Y-203711D01*
Y-203378D01*
X-69433Y-203044D01*
X-69766D01*
X-70100Y-203378D01*
Y-204044D01*
X-69766Y-204377D01*
X-68100Y-202378D02*
X-69433D01*
X-70100Y-201711D01*
X-69433Y-201045D01*
X-68100D01*
X-68433Y-200378D02*
X-68100Y-200045D01*
Y-199379D01*
X-68433Y-199046D01*
X-68767D01*
X-69100Y-199379D01*
Y-199712D01*
Y-199379D01*
X-69433Y-199046D01*
X-69766D01*
X-70100Y-199379D01*
Y-200045D01*
X-69766Y-200378D01*
X-68433Y-187296D02*
X-68100Y-187629D01*
Y-188296D01*
X-68433Y-188629D01*
X-69766D01*
X-70100Y-188296D01*
Y-187629D01*
X-69766Y-187296D01*
X-69100D01*
Y-187963D01*
X-70100Y-186630D02*
X-68100D01*
X-70100Y-185297D01*
X-68100D01*
Y-184631D02*
X-70100D01*
Y-183631D01*
X-69766Y-183298D01*
X-68433D01*
X-68100Y-183631D01*
Y-184631D01*
X-68433Y-195170D02*
X-68100Y-195503D01*
Y-196170D01*
X-68433Y-196503D01*
X-69766D01*
X-70100Y-196170D01*
Y-195503D01*
X-69766Y-195170D01*
X-68100Y-194504D02*
X-70100D01*
Y-193171D01*
X-68100Y-192505D02*
X-70100D01*
X-69433D01*
X-68100Y-191172D01*
X-69100Y-192171D01*
X-70100Y-191172D01*
X-68100Y-179771D02*
X-70100D01*
Y-178771D01*
X-69766Y-178438D01*
X-68433D01*
X-68100Y-178771D01*
Y-179771D01*
Y-177772D02*
Y-177105D01*
Y-177438D01*
X-70100D01*
Y-177772D01*
Y-177105D01*
X-68100Y-175106D02*
Y-175772D01*
X-68433Y-176105D01*
X-69766D01*
X-70100Y-175772D01*
Y-175106D01*
X-69766Y-174773D01*
X-68433D01*
X-68100Y-175106D01*
X-70100Y-171897D02*
X-68100D01*
Y-170897D01*
X-68433Y-170564D01*
X-69100D01*
X-69433Y-170897D01*
Y-171897D01*
Y-171230D02*
X-70100Y-170564D01*
X-68433Y-168565D02*
X-68100Y-168898D01*
Y-169564D01*
X-68433Y-169898D01*
X-68767D01*
X-69100Y-169564D01*
Y-168898D01*
X-69433Y-168565D01*
X-69766D01*
X-70100Y-168898D01*
Y-169564D01*
X-69766Y-169898D01*
X-68100Y-167898D02*
Y-166565D01*
Y-167232D01*
X-70100D01*
X-141884Y-77861D02*
X-141551Y-77528D01*
X-140884D01*
X-140551Y-77861D01*
Y-79194D01*
X-140884Y-79528D01*
X-141551D01*
X-141884Y-79194D01*
X-142551Y-79528D02*
X-143217D01*
X-142884D01*
Y-77528D01*
X-142551Y-77861D01*
X-144217Y-79528D02*
X-144883D01*
X-144550D01*
Y-77528D01*
X-144217Y-77861D01*
X-145883Y-79528D02*
X-146549D01*
X-146216D01*
Y-77528D01*
X-145883Y-77861D01*
X-181648Y-78649D02*
X-181315Y-78316D01*
X-180648D01*
X-180315Y-78649D01*
Y-79982D01*
X-180648Y-80315D01*
X-181315D01*
X-181648Y-79982D01*
X-182314Y-80315D02*
X-182981D01*
X-182648D01*
Y-78316D01*
X-182314Y-78649D01*
X-183980Y-80315D02*
X-184647D01*
X-184314D01*
Y-78316D01*
X-183980Y-78649D01*
X-185647D02*
X-185980Y-78316D01*
X-186646D01*
X-186979Y-78649D01*
Y-79982D01*
X-186646Y-80315D01*
X-185980D01*
X-185647Y-79982D01*
Y-78649D01*
X-96215Y-23137D02*
X-95882Y-22804D01*
X-95215D01*
X-94882Y-23137D01*
Y-24470D01*
X-95215Y-24803D01*
X-95882D01*
X-96215Y-24470D01*
X-96881Y-24803D02*
X-97548D01*
X-97215D01*
Y-22804D01*
X-96881Y-23137D01*
X-98547D02*
X-98881Y-22804D01*
X-99547D01*
X-99880Y-23137D01*
Y-24470D01*
X-99547Y-24803D01*
X-98881D01*
X-98547Y-24470D01*
Y-23137D01*
X-100547Y-24470D02*
X-100880Y-24803D01*
X-101546D01*
X-101880Y-24470D01*
Y-23137D01*
X-101546Y-22804D01*
X-100880D01*
X-100547Y-23137D01*
Y-23470D01*
X-100880Y-23803D01*
X-101880D01*
X-229679Y-55027D02*
X-229346Y-54694D01*
X-228680D01*
X-228346Y-55027D01*
Y-56360D01*
X-228680Y-56693D01*
X-229346D01*
X-229679Y-56360D01*
X-230346Y-56693D02*
X-231012D01*
X-230679D01*
Y-54694D01*
X-230346Y-55027D01*
X-232012D02*
X-232345Y-54694D01*
X-233012D01*
X-233345Y-55027D01*
Y-56360D01*
X-233012Y-56693D01*
X-232345D01*
X-232012Y-56360D01*
Y-55027D01*
X-234011D02*
X-234345Y-54694D01*
X-235011D01*
X-235344Y-55027D01*
Y-55360D01*
X-235011Y-55693D01*
X-235344Y-56027D01*
Y-56360D01*
X-235011Y-56693D01*
X-234345D01*
X-234011Y-56360D01*
Y-56027D01*
X-234345Y-55693D01*
X-234011Y-55360D01*
Y-55027D01*
X-234345Y-55693D02*
X-235011D01*
X-229679Y-52271D02*
X-229346Y-51938D01*
X-228680D01*
X-228346Y-52271D01*
Y-53604D01*
X-228680Y-53937D01*
X-229346D01*
X-229679Y-53604D01*
X-230346Y-53937D02*
X-231012D01*
X-230679D01*
Y-51938D01*
X-230346Y-52271D01*
X-232012D02*
X-232345Y-51938D01*
X-233012D01*
X-233345Y-52271D01*
Y-53604D01*
X-233012Y-53937D01*
X-232345D01*
X-232012Y-53604D01*
Y-52271D01*
X-234011Y-51938D02*
X-235344D01*
Y-52271D01*
X-234011Y-53604D01*
Y-53937D01*
X-33465Y-229497D02*
X-34797Y-231496D01*
Y-229497D02*
X-33465Y-231496D01*
X-35464D02*
X-36130D01*
X-35797D01*
Y-229497D01*
X-35464Y-229830D01*
X-37130Y-229497D02*
Y-231496D01*
X-38130D01*
X-38463Y-231163D01*
Y-230830D01*
X-38130Y-230496D01*
X-37130D01*
X-38130D01*
X-38463Y-230163D01*
Y-229830D01*
X-38130Y-229497D01*
X-37130D01*
X-29286Y-138491D02*
X-28952Y-138158D01*
X-28286D01*
X-27953Y-138491D01*
Y-139824D01*
X-28286Y-140157D01*
X-28952D01*
X-29286Y-139824D01*
X-29952Y-138491D02*
X-30285Y-138158D01*
X-30952D01*
X-31285Y-138491D01*
Y-138825D01*
X-30952Y-139158D01*
X-30619D01*
X-30952D01*
X-31285Y-139491D01*
Y-139824D01*
X-30952Y-140157D01*
X-30285D01*
X-29952Y-139824D01*
X-31951Y-138491D02*
X-32285Y-138158D01*
X-32951D01*
X-33284Y-138491D01*
Y-138825D01*
X-32951Y-139158D01*
X-32618D01*
X-32951D01*
X-33284Y-139491D01*
Y-139824D01*
X-32951Y-140157D01*
X-32285D01*
X-31951Y-139824D01*
X-23228Y-186614D02*
Y-184615D01*
X-24228D01*
X-24561Y-184948D01*
Y-185615D01*
X-24228Y-185948D01*
X-23228D01*
X-23895D02*
X-24561Y-186614D01*
X-25228Y-184948D02*
X-25561Y-184615D01*
X-26227D01*
X-26561Y-184948D01*
Y-185281D01*
X-26227Y-185615D01*
X-25894D01*
X-26227D01*
X-26561Y-185948D01*
Y-186281D01*
X-26227Y-186614D01*
X-25561D01*
X-25228Y-186281D01*
X-27227Y-184948D02*
X-27560Y-184615D01*
X-28227D01*
X-28560Y-184948D01*
Y-185281D01*
X-28227Y-185615D01*
X-28560Y-185948D01*
Y-186281D01*
X-28227Y-186614D01*
X-27560D01*
X-27227Y-186281D01*
Y-185948D01*
X-27560Y-185615D01*
X-27227Y-185281D01*
Y-184948D01*
X-27560Y-185615D02*
X-28227D01*
X-29528Y-197244D02*
Y-195245D01*
X-30527D01*
X-30860Y-195578D01*
Y-196244D01*
X-30527Y-196578D01*
X-29528D01*
X-30194D02*
X-30860Y-197244D01*
X-31527Y-195578D02*
X-31860Y-195245D01*
X-32527D01*
X-32860Y-195578D01*
Y-195911D01*
X-32527Y-196244D01*
X-32193D01*
X-32527D01*
X-32860Y-196578D01*
Y-196911D01*
X-32527Y-197244D01*
X-31860D01*
X-31527Y-196911D01*
X-33526Y-195245D02*
X-34859D01*
Y-195578D01*
X-33526Y-196911D01*
Y-197244D01*
X-22835Y-177559D02*
Y-175560D01*
X-23834D01*
X-24168Y-175893D01*
Y-176559D01*
X-23834Y-176893D01*
X-22835D01*
X-23501D02*
X-24168Y-177559D01*
X-26167D02*
X-24834D01*
X-26167Y-176226D01*
Y-175893D01*
X-25834Y-175560D01*
X-25167D01*
X-24834Y-175893D01*
X-28166Y-177559D02*
X-26833D01*
X-28166Y-176226D01*
Y-175893D01*
X-27833Y-175560D01*
X-27167D01*
X-26833Y-175893D01*
X-59055Y-176772D02*
Y-174772D01*
X-60055D01*
X-60388Y-175106D01*
Y-175772D01*
X-60055Y-176105D01*
X-59055D01*
X-59722D02*
X-60388Y-176772D01*
X-62387Y-174772D02*
X-61054D01*
Y-175772D01*
X-61721Y-175439D01*
X-62054D01*
X-62387Y-175772D01*
Y-176438D01*
X-62054Y-176772D01*
X-61388D01*
X-61054Y-176438D01*
X-4724Y-73591D02*
Y-75590D01*
Y-74924D01*
X-6057Y-73591D01*
X-5058Y-74591D01*
X-6057Y-75590D01*
X-6724D02*
X-7390D01*
X-7057D01*
Y-73591D01*
X-6724Y-73924D01*
X-52756Y-176741D02*
Y-178740D01*
X-53756D01*
X-54089Y-178407D01*
Y-177074D01*
X-53756Y-176741D01*
X-52756D01*
X-54755Y-177074D02*
X-55089Y-176741D01*
X-55755D01*
X-56088Y-177074D01*
Y-177407D01*
X-55755Y-177741D01*
X-55422D01*
X-55755D01*
X-56088Y-178074D01*
Y-178407D01*
X-55755Y-178740D01*
X-55089D01*
X-54755Y-178407D01*
X-52362Y-182646D02*
Y-184646D01*
X-53362D01*
X-53695Y-184312D01*
Y-182980D01*
X-53362Y-182646D01*
X-52362D01*
X-55694Y-184646D02*
X-54361D01*
X-55694Y-183313D01*
Y-182980D01*
X-55361Y-182646D01*
X-54695D01*
X-54361Y-182980D01*
X-52362Y-188945D02*
Y-190945D01*
X-53362D01*
X-53695Y-190612D01*
Y-189279D01*
X-53362Y-188945D01*
X-52362D01*
X-54361Y-190945D02*
X-55028D01*
X-54695D01*
Y-188945D01*
X-54361Y-189279D01*
X-59994Y-157389D02*
X-59661Y-157056D01*
X-58995D01*
X-58661Y-157389D01*
Y-158722D01*
X-58995Y-159055D01*
X-59661D01*
X-59994Y-158722D01*
X-60661Y-157389D02*
X-60994Y-157056D01*
X-61660D01*
X-61994Y-157389D01*
Y-157722D01*
X-61660Y-158055D01*
X-61327D01*
X-61660D01*
X-61994Y-158389D01*
Y-158722D01*
X-61660Y-159055D01*
X-60994D01*
X-60661Y-158722D01*
X-43307Y-74772D02*
Y-76438D01*
X-43640Y-76772D01*
X-44307D01*
X-44640Y-76438D01*
Y-74772D01*
X-46306Y-76772D02*
Y-74772D01*
X-45306Y-75772D01*
X-46639D01*
X-47306Y-75106D02*
X-47639Y-74772D01*
X-48305D01*
X-48639Y-75106D01*
Y-76438D01*
X-48305Y-76772D01*
X-47639D01*
X-47306Y-76438D01*
Y-75106D01*
X-49305Y-76772D02*
X-49972D01*
X-49638D01*
Y-74772D01*
X-49305Y-75106D01*
X-17323Y-74016D02*
Y-72016D01*
X-18323D01*
X-18656Y-72350D01*
Y-73016D01*
X-18323Y-73349D01*
X-17323D01*
X-17989D02*
X-18656Y-74016D01*
X-20322D02*
Y-72016D01*
X-19322Y-73016D01*
X-20655D01*
X-21321Y-72350D02*
X-21655Y-72016D01*
X-22321D01*
X-22654Y-72350D01*
Y-73682D01*
X-22321Y-74016D01*
X-21655D01*
X-21321Y-73682D01*
Y-72350D01*
X-23321Y-74016D02*
X-23987D01*
X-23654D01*
Y-72016D01*
X-23321Y-72350D01*
X-60630Y-196457D02*
X-58631D01*
Y-195457D01*
X-58964Y-195124D01*
X-59630D01*
X-59964Y-195457D01*
Y-196457D01*
Y-195790D02*
X-60630Y-195124D01*
Y-194457D02*
Y-193791D01*
Y-194124D01*
X-58631D01*
X-58964Y-194457D01*
Y-192791D02*
X-58631Y-192458D01*
Y-191791D01*
X-58964Y-191458D01*
X-60297D01*
X-60630Y-191791D01*
Y-192458D01*
X-60297Y-192791D01*
X-58964D01*
X-60630Y-189792D02*
X-58631D01*
X-59630Y-190792D01*
Y-189459D01*
X-46457Y-206693D02*
X-44457D01*
Y-205693D01*
X-44791Y-205360D01*
X-45457D01*
X-45790Y-205693D01*
Y-206693D01*
Y-206027D02*
X-46457Y-205360D01*
Y-204694D02*
Y-204027D01*
Y-204360D01*
X-44457D01*
X-44791Y-204694D01*
Y-203027D02*
X-44457Y-202694D01*
Y-202028D01*
X-44791Y-201694D01*
X-46123D01*
X-46457Y-202028D01*
Y-202694D01*
X-46123Y-203027D01*
X-44791D01*
Y-201028D02*
X-44457Y-200695D01*
Y-200028D01*
X-44791Y-199695D01*
X-45124D01*
X-45457Y-200028D01*
Y-200362D01*
Y-200028D01*
X-45790Y-199695D01*
X-46123D01*
X-46457Y-200028D01*
Y-200695D01*
X-46123Y-201028D01*
X-147638Y-52362D02*
Y-50363D01*
X-148637D01*
X-148971Y-50696D01*
Y-51363D01*
X-148637Y-51696D01*
X-147638D01*
X-148304D02*
X-148971Y-52362D01*
X-150970Y-50363D02*
X-149637D01*
Y-51363D01*
X-150304Y-51029D01*
X-150637D01*
X-150970Y-51363D01*
Y-52029D01*
X-150637Y-52362D01*
X-149970D01*
X-149637Y-52029D01*
X-152636Y-52362D02*
Y-50363D01*
X-151637Y-51363D01*
X-152969D01*
X-80248Y-37377D02*
Y-35378D01*
X-81248D01*
X-81581Y-35711D01*
Y-36378D01*
X-81248Y-36711D01*
X-80248D01*
X-80914D02*
X-81581Y-37377D01*
X-83580Y-35378D02*
X-82247D01*
Y-36378D01*
X-82914Y-36044D01*
X-83247D01*
X-83580Y-36378D01*
Y-37044D01*
X-83247Y-37377D01*
X-82580D01*
X-82247Y-37044D01*
X-84246Y-37377D02*
X-84913D01*
X-84580D01*
Y-35378D01*
X-84246Y-35711D01*
X-80315Y-45276D02*
Y-43276D01*
X-81315D01*
X-81648Y-43609D01*
Y-44276D01*
X-81315Y-44609D01*
X-80315D01*
X-80981D02*
X-81648Y-45276D01*
X-83647Y-43276D02*
X-82314D01*
Y-44276D01*
X-82981Y-43943D01*
X-83314D01*
X-83647Y-44276D01*
Y-44942D01*
X-83314Y-45276D01*
X-82648D01*
X-82314Y-44942D01*
X-84314Y-43609D02*
X-84647Y-43276D01*
X-85313D01*
X-85647Y-43609D01*
Y-44942D01*
X-85313Y-45276D01*
X-84647D01*
X-84314Y-44942D01*
Y-43609D01*
X-80315Y-52756D02*
Y-50757D01*
X-81315D01*
X-81648Y-51090D01*
Y-51756D01*
X-81315Y-52090D01*
X-80315D01*
X-80981D02*
X-81648Y-52756D01*
X-83314D02*
Y-50757D01*
X-82314Y-51756D01*
X-83647D01*
X-84314Y-52423D02*
X-84647Y-52756D01*
X-85313D01*
X-85647Y-52423D01*
Y-51090D01*
X-85313Y-50757D01*
X-84647D01*
X-84314Y-51090D01*
Y-51423D01*
X-84647Y-51756D01*
X-85647D01*
X-80315Y-59842D02*
Y-57843D01*
X-81315D01*
X-81648Y-58176D01*
Y-58843D01*
X-81315Y-59176D01*
X-80315D01*
X-80981D02*
X-81648Y-59842D01*
X-83314D02*
Y-57843D01*
X-82314Y-58843D01*
X-83647D01*
X-84314Y-58176D02*
X-84647Y-57843D01*
X-85313D01*
X-85647Y-58176D01*
Y-58510D01*
X-85313Y-58843D01*
X-85647Y-59176D01*
Y-59509D01*
X-85313Y-59842D01*
X-84647D01*
X-84314Y-59509D01*
Y-59176D01*
X-84647Y-58843D01*
X-84314Y-58510D01*
Y-58176D01*
X-84647Y-58843D02*
X-85313D01*
X-187402Y-24016D02*
Y-22016D01*
X-188401D01*
X-188734Y-22350D01*
Y-23016D01*
X-188401Y-23349D01*
X-187402D01*
X-188068D02*
X-188734Y-24016D01*
X-190401D02*
Y-22016D01*
X-189401Y-23016D01*
X-190734D01*
X-192733Y-22016D02*
X-192067Y-22350D01*
X-191400Y-23016D01*
Y-23683D01*
X-191734Y-24016D01*
X-192400D01*
X-192733Y-23683D01*
Y-23349D01*
X-192400Y-23016D01*
X-191400D01*
X-196063Y-5512D02*
Y-3512D01*
X-197063D01*
X-197396Y-3846D01*
Y-4512D01*
X-197063Y-4845D01*
X-196063D01*
X-196729D02*
X-197396Y-5512D01*
X-199062D02*
Y-3512D01*
X-198062Y-4512D01*
X-199395D01*
X-200062Y-3846D02*
X-200395Y-3512D01*
X-201061D01*
X-201395Y-3846D01*
Y-4179D01*
X-201061Y-4512D01*
X-200728D01*
X-201061D01*
X-201395Y-4845D01*
Y-5179D01*
X-201061Y-5512D01*
X-200395D01*
X-200062Y-5179D01*
X-201575Y-93701D02*
Y-91701D01*
X-202574D01*
X-202908Y-92035D01*
Y-92701D01*
X-202574Y-93034D01*
X-201575D01*
X-202241D02*
X-202908Y-93701D01*
X-204574D02*
Y-91701D01*
X-203574Y-92701D01*
X-204907D01*
X-206906Y-93701D02*
X-205574D01*
X-206906Y-92368D01*
Y-92035D01*
X-206573Y-91701D01*
X-205907D01*
X-205574Y-92035D01*
X-137402Y-23228D02*
Y-21229D01*
X-138401D01*
X-138734Y-21562D01*
Y-22229D01*
X-138401Y-22562D01*
X-137402D01*
X-138068D02*
X-138734Y-23228D01*
X-139401Y-21562D02*
X-139734Y-21229D01*
X-140401D01*
X-140734Y-21562D01*
Y-21895D01*
X-140401Y-22229D01*
X-140067D01*
X-140401D01*
X-140734Y-22562D01*
Y-22895D01*
X-140401Y-23228D01*
X-139734D01*
X-139401Y-22895D01*
X-142733Y-21229D02*
X-142067Y-21562D01*
X-141400Y-22229D01*
Y-22895D01*
X-141734Y-23228D01*
X-142400D01*
X-142733Y-22895D01*
Y-22562D01*
X-142400Y-22229D01*
X-141400D01*
X-146063Y-5512D02*
Y-3512D01*
X-147063D01*
X-147396Y-3846D01*
Y-4512D01*
X-147063Y-4845D01*
X-146063D01*
X-146729D02*
X-147396Y-5512D01*
X-148062Y-3846D02*
X-148396Y-3512D01*
X-149062D01*
X-149395Y-3846D01*
Y-4179D01*
X-149062Y-4512D01*
X-148729D01*
X-149062D01*
X-149395Y-4845D01*
Y-5179D01*
X-149062Y-5512D01*
X-148396D01*
X-148062Y-5179D01*
X-151395Y-3512D02*
X-150062D01*
Y-4512D01*
X-150728Y-4179D01*
X-151061D01*
X-151395Y-4512D01*
Y-5179D01*
X-151061Y-5512D01*
X-150395D01*
X-150062Y-5179D01*
X-145669Y-99606D02*
Y-97607D01*
X-146669D01*
X-147002Y-97940D01*
Y-98607D01*
X-146669Y-98940D01*
X-145669D01*
X-146336D02*
X-147002Y-99606D01*
X-147669Y-97940D02*
X-148002Y-97607D01*
X-148668D01*
X-149002Y-97940D01*
Y-98273D01*
X-148668Y-98607D01*
X-148335D01*
X-148668D01*
X-149002Y-98940D01*
Y-99273D01*
X-148668Y-99606D01*
X-148002D01*
X-147669Y-99273D01*
X-150668Y-99606D02*
Y-97607D01*
X-149668Y-98607D01*
X-151001D01*
X-70866Y-89764D02*
Y-87764D01*
X-71866D01*
X-72199Y-88098D01*
Y-88764D01*
X-71866Y-89097D01*
X-70866D01*
X-71533D02*
X-72199Y-89764D01*
X-72865Y-88098D02*
X-73199Y-87764D01*
X-73865D01*
X-74198Y-88098D01*
Y-88431D01*
X-73865Y-88764D01*
X-73532D01*
X-73865D01*
X-74198Y-89097D01*
Y-89431D01*
X-73865Y-89764D01*
X-73199D01*
X-72865Y-89431D01*
X-74865Y-88098D02*
X-75198Y-87764D01*
X-75864D01*
X-76198Y-88098D01*
Y-88431D01*
X-75864Y-88764D01*
X-75531D01*
X-75864D01*
X-76198Y-89097D01*
Y-89431D01*
X-75864Y-89764D01*
X-75198D01*
X-74865Y-89431D01*
X-88583Y-17717D02*
X-86583D01*
Y-16717D01*
X-86917Y-16384D01*
X-87583D01*
X-87916Y-16717D01*
Y-17717D01*
Y-17050D02*
X-88583Y-16384D01*
X-86917Y-15717D02*
X-86583Y-15384D01*
Y-14717D01*
X-86917Y-14384D01*
X-87250D01*
X-87583Y-14717D01*
Y-15051D01*
Y-14717D01*
X-87916Y-14384D01*
X-88249D01*
X-88583Y-14717D01*
Y-15384D01*
X-88249Y-15717D01*
X-86917Y-13718D02*
X-86583Y-13385D01*
Y-12718D01*
X-86917Y-12385D01*
X-88249D01*
X-88583Y-12718D01*
Y-13385D01*
X-88249Y-13718D01*
X-86917D01*
X-92126Y-98819D02*
Y-96820D01*
X-93126D01*
X-93459Y-97153D01*
Y-97819D01*
X-93126Y-98152D01*
X-92126D01*
X-92792D02*
X-93459Y-98819D01*
X-95458D02*
X-94125D01*
X-95458Y-97486D01*
Y-97153D01*
X-95125Y-96820D01*
X-94459D01*
X-94125Y-97153D01*
X-96125D02*
X-96458Y-96820D01*
X-97124D01*
X-97458Y-97153D01*
Y-97486D01*
X-97124Y-97819D01*
X-97458Y-98152D01*
Y-98486D01*
X-97124Y-98819D01*
X-96458D01*
X-96125Y-98486D01*
Y-98152D01*
X-96458Y-97819D01*
X-96125Y-97486D01*
Y-97153D01*
X-96458Y-97819D02*
X-97124D01*
X-80315Y-76772D02*
Y-74772D01*
X-81315D01*
X-81648Y-75106D01*
Y-75772D01*
X-81315Y-76105D01*
X-80315D01*
X-80981D02*
X-81648Y-76772D01*
X-83647D02*
X-82314D01*
X-83647Y-75439D01*
Y-75106D01*
X-83314Y-74772D01*
X-82648D01*
X-82314Y-75106D01*
X-84314Y-74772D02*
X-85647D01*
Y-75106D01*
X-84314Y-76438D01*
Y-76772D01*
X-59449Y-90158D02*
Y-88158D01*
X-60448D01*
X-60782Y-88491D01*
Y-89158D01*
X-60448Y-89491D01*
X-59449D01*
X-60115D02*
X-60782Y-90158D01*
X-62781D02*
X-61448D01*
X-62781Y-88825D01*
Y-88491D01*
X-62448Y-88158D01*
X-61781D01*
X-61448Y-88491D01*
X-64780Y-88158D02*
X-63447D01*
Y-89158D01*
X-64114Y-88825D01*
X-64447D01*
X-64780Y-89158D01*
Y-89824D01*
X-64447Y-90158D01*
X-63781D01*
X-63447Y-89824D01*
X-80315Y-68504D02*
Y-66505D01*
X-81315D01*
X-81648Y-66838D01*
Y-67504D01*
X-81315Y-67838D01*
X-80315D01*
X-80981D02*
X-81648Y-68504D01*
X-83647D02*
X-82314D01*
X-83647Y-67171D01*
Y-66838D01*
X-83314Y-66505D01*
X-82648D01*
X-82314Y-66838D01*
X-85313Y-68504D02*
Y-66505D01*
X-84314Y-67504D01*
X-85647D01*
X-24803Y-100787D02*
Y-98788D01*
X-25803D01*
X-26136Y-99121D01*
Y-99788D01*
X-25803Y-100121D01*
X-24803D01*
X-25470D02*
X-26136Y-100787D01*
X-28135D02*
X-26803D01*
X-28135Y-99454D01*
Y-99121D01*
X-27802Y-98788D01*
X-27136D01*
X-26803Y-99121D01*
X-28802Y-100787D02*
X-29468D01*
X-29135D01*
Y-98788D01*
X-28802Y-99121D01*
X-6299Y-64567D02*
Y-62568D01*
X-7299D01*
X-7632Y-62901D01*
Y-63567D01*
X-7299Y-63901D01*
X-6299D01*
X-6966D02*
X-7632Y-64567D01*
X-9631D02*
X-8299D01*
X-9631Y-63234D01*
Y-62901D01*
X-9298Y-62568D01*
X-8632D01*
X-8299Y-62901D01*
X-10298D02*
X-10631Y-62568D01*
X-11298D01*
X-11631Y-62901D01*
Y-64234D01*
X-11298Y-64567D01*
X-10631D01*
X-10298Y-64234D01*
Y-62901D01*
X-27559Y-88189D02*
Y-86190D01*
X-28559D01*
X-28892Y-86523D01*
Y-87189D01*
X-28559Y-87523D01*
X-27559D01*
X-28225D02*
X-28892Y-88189D01*
X-29558D02*
X-30225D01*
X-29892D01*
Y-86190D01*
X-29558Y-86523D01*
X-31225Y-87856D02*
X-31558Y-88189D01*
X-32224D01*
X-32557Y-87856D01*
Y-86523D01*
X-32224Y-86190D01*
X-31558D01*
X-31225Y-86523D01*
Y-86856D01*
X-31558Y-87189D01*
X-32557D01*
X-62205Y-20810D02*
Y-18811D01*
X-63204D01*
X-63538Y-19144D01*
Y-19811D01*
X-63204Y-20144D01*
X-62205D01*
X-62871D02*
X-63538Y-20810D01*
X-64204D02*
X-64871D01*
X-64537D01*
Y-18811D01*
X-64204Y-19144D01*
X-65870D02*
X-66203Y-18811D01*
X-66870D01*
X-67203Y-19144D01*
Y-19477D01*
X-66870Y-19811D01*
X-66537D01*
X-66870D01*
X-67203Y-20144D01*
Y-20477D01*
X-66870Y-20810D01*
X-66203D01*
X-65870Y-20477D01*
X-48425Y-20810D02*
Y-18811D01*
X-49425D01*
X-49758Y-19144D01*
Y-19811D01*
X-49425Y-20144D01*
X-48425D01*
X-49092D02*
X-49758Y-20810D01*
X-50424D02*
X-51091D01*
X-50758D01*
Y-18811D01*
X-50424Y-19144D01*
X-53424Y-20810D02*
X-52091D01*
X-53424Y-19477D01*
Y-19144D01*
X-53090Y-18811D01*
X-52424D01*
X-52091Y-19144D01*
X-34646Y-20810D02*
Y-18811D01*
X-35645D01*
X-35979Y-19144D01*
Y-19811D01*
X-35645Y-20144D01*
X-34646D01*
X-35312D02*
X-35979Y-20810D01*
X-36645D02*
X-37312D01*
X-36978D01*
Y-18811D01*
X-36645Y-19144D01*
X-38311Y-20810D02*
X-38978D01*
X-38644D01*
Y-18811D01*
X-38311Y-19144D01*
X-27756Y-20810D02*
Y-18811D01*
X-28756D01*
X-29089Y-19144D01*
Y-19811D01*
X-28756Y-20144D01*
X-27756D01*
X-28422D02*
X-29089Y-20810D01*
X-29755D02*
X-30422D01*
X-30088D01*
Y-18811D01*
X-29755Y-19144D01*
X-31421D02*
X-31755Y-18811D01*
X-32421D01*
X-32754Y-19144D01*
Y-20477D01*
X-32421Y-20810D01*
X-31755D01*
X-31421Y-20477D01*
Y-19144D01*
X-41535Y-20810D02*
Y-18811D01*
X-42535D01*
X-42868Y-19144D01*
Y-19811D01*
X-42535Y-20144D01*
X-41535D01*
X-42202D02*
X-42868Y-20810D01*
X-43535Y-20477D02*
X-43868Y-20810D01*
X-44534D01*
X-44868Y-20477D01*
Y-19144D01*
X-44534Y-18811D01*
X-43868D01*
X-43535Y-19144D01*
Y-19477D01*
X-43868Y-19811D01*
X-44868D01*
X-55315Y-20810D02*
Y-18811D01*
X-56315D01*
X-56648Y-19144D01*
Y-19811D01*
X-56315Y-20144D01*
X-55315D01*
X-55981D02*
X-56648Y-20810D01*
X-57314Y-19144D02*
X-57648Y-18811D01*
X-58314D01*
X-58647Y-19144D01*
Y-19477D01*
X-58314Y-19811D01*
X-58647Y-20144D01*
Y-20477D01*
X-58314Y-20810D01*
X-57648D01*
X-57314Y-20477D01*
Y-20144D01*
X-57648Y-19811D01*
X-57314Y-19477D01*
Y-19144D01*
X-57648Y-19811D02*
X-58314D01*
X-76968Y-20810D02*
Y-18811D01*
X-77968D01*
X-78301Y-19144D01*
Y-19811D01*
X-77968Y-20144D01*
X-76968D01*
X-77635D02*
X-78301Y-20810D01*
X-78968Y-18811D02*
X-80301D01*
Y-19144D01*
X-78968Y-20477D01*
Y-20810D01*
X-73622Y-124016D02*
Y-122016D01*
X-74622D01*
X-74955Y-122350D01*
Y-123016D01*
X-74622Y-123349D01*
X-73622D01*
X-74288D02*
X-74955Y-124016D01*
X-76621D02*
Y-122016D01*
X-75621Y-123016D01*
X-76954D01*
X-19291Y-152756D02*
X-21291D01*
Y-153756D01*
X-20957Y-154089D01*
X-20291D01*
X-19958Y-153756D01*
Y-152756D01*
X-20957Y-154755D02*
X-21291Y-155088D01*
Y-155755D01*
X-20957Y-156088D01*
X-20624D01*
X-20291Y-155755D01*
Y-155422D01*
Y-155755D01*
X-19958Y-156088D01*
X-19625D01*
X-19291Y-155755D01*
Y-155088D01*
X-19625Y-154755D01*
X-71850Y-152559D02*
Y-150560D01*
X-72850D01*
X-73183Y-150893D01*
Y-151559D01*
X-72850Y-151893D01*
X-71850D01*
X-75183Y-152559D02*
X-73850D01*
X-75183Y-151226D01*
Y-150893D01*
X-74849Y-150560D01*
X-74183D01*
X-73850Y-150893D01*
X-82677Y-4921D02*
Y-2921D01*
X-83676D01*
X-84010Y-3254D01*
Y-3921D01*
X-83676Y-4254D01*
X-82677D01*
X-84676Y-4921D02*
X-85343D01*
X-85009D01*
Y-2921D01*
X-84676Y-3254D01*
X-61417Y-114930D02*
Y-116929D01*
X-62750D01*
X-63417D02*
X-64083D01*
X-63750D01*
Y-114930D01*
X-63417Y-115263D01*
X-19686Y-140157D02*
X-21685D01*
Y-141157D01*
X-21352Y-141490D01*
X-20685D01*
X-20352Y-141157D01*
Y-140157D01*
X-19686Y-142157D02*
Y-142823D01*
Y-142490D01*
X-21685D01*
X-21352Y-142157D01*
Y-143823D02*
X-21685Y-144156D01*
Y-144823D01*
X-21352Y-145156D01*
X-20019D01*
X-19686Y-144823D01*
Y-144156D01*
X-20019Y-143823D01*
X-21352D01*
X-19686Y-145822D02*
Y-146489D01*
Y-146156D01*
X-21685D01*
X-21352Y-145822D01*
X-18867Y-118504D02*
X-20866D01*
Y-117504D01*
X-20533Y-117171D01*
X-19200D01*
X-18867Y-117504D01*
Y-118504D01*
Y-115172D02*
Y-116505D01*
X-19866D01*
X-19533Y-115838D01*
Y-115505D01*
X-19866Y-115172D01*
X-20533D01*
X-20866Y-115505D01*
Y-116171D01*
X-20533Y-116505D01*
X-73531Y-97880D02*
X-73198Y-98213D01*
Y-98879D01*
X-73531Y-99213D01*
X-74864D01*
X-75197Y-98879D01*
Y-98213D01*
X-74864Y-97880D01*
X-75197Y-96214D02*
X-73198D01*
X-74197Y-97213D01*
Y-95880D01*
X-73531Y-95214D02*
X-73198Y-94881D01*
Y-94214D01*
X-73531Y-93881D01*
X-73864D01*
X-74197Y-94214D01*
Y-94547D01*
Y-94214D01*
X-74530Y-93881D01*
X-74864D01*
X-75197Y-94214D01*
Y-94881D01*
X-74864Y-95214D01*
X-57389Y-45911D02*
X-57056Y-46244D01*
Y-46911D01*
X-57389Y-47244D01*
X-58722D01*
X-59055Y-46911D01*
Y-46244D01*
X-58722Y-45911D01*
X-57389Y-45245D02*
X-57056Y-44912D01*
Y-44245D01*
X-57389Y-43912D01*
X-57722D01*
X-58055Y-44245D01*
Y-44578D01*
Y-44245D01*
X-58389Y-43912D01*
X-58722D01*
X-59055Y-44245D01*
Y-44912D01*
X-58722Y-45245D01*
X-57056Y-41912D02*
X-57389Y-42579D01*
X-58055Y-43245D01*
X-58722D01*
X-59055Y-42912D01*
Y-42246D01*
X-58722Y-41912D01*
X-58389D01*
X-58055Y-42246D01*
Y-43245D01*
X-56208Y-57328D02*
X-55875Y-57662D01*
Y-58328D01*
X-56208Y-58661D01*
X-57541D01*
X-57874Y-58328D01*
Y-57662D01*
X-57541Y-57328D01*
X-56208Y-56662D02*
X-55875Y-56329D01*
Y-55662D01*
X-56208Y-55329D01*
X-56541D01*
X-56874Y-55662D01*
Y-55996D01*
Y-55662D01*
X-57208Y-55329D01*
X-57541D01*
X-57874Y-55662D01*
Y-56329D01*
X-57541Y-56662D01*
X-57874Y-53663D02*
X-55875D01*
X-56874Y-54663D01*
Y-53330D01*
X-49364Y-81011D02*
X-49031Y-80678D01*
X-48365D01*
X-48031Y-81011D01*
Y-82344D01*
X-48365Y-82677D01*
X-49031D01*
X-49364Y-82344D01*
X-51364Y-82677D02*
X-50031D01*
X-51364Y-81344D01*
Y-81011D01*
X-51030Y-80678D01*
X-50364D01*
X-50031Y-81011D01*
X-52030Y-82677D02*
X-52697D01*
X-52363D01*
Y-80678D01*
X-52030Y-81011D01*
X-36372Y-98728D02*
X-36039Y-98394D01*
X-35373D01*
X-35039Y-98728D01*
Y-100060D01*
X-35373Y-100394D01*
X-36039D01*
X-36372Y-100060D01*
X-37039Y-100394D02*
X-37705D01*
X-37372D01*
Y-98394D01*
X-37039Y-98728D01*
X-38705Y-100060D02*
X-39038Y-100394D01*
X-39704D01*
X-40038Y-100060D01*
Y-98728D01*
X-39704Y-98394D01*
X-39038D01*
X-38705Y-98728D01*
Y-99061D01*
X-39038Y-99394D01*
X-40038D01*
X-45427Y-154239D02*
X-45094Y-153906D01*
X-44428D01*
X-44094Y-154239D01*
Y-155572D01*
X-44428Y-155905D01*
X-45094D01*
X-45427Y-155572D01*
X-46094Y-155905D02*
X-46760D01*
X-46427D01*
Y-153906D01*
X-46094Y-154239D01*
X-47760Y-153906D02*
X-49093D01*
Y-154239D01*
X-47760Y-155572D01*
Y-155905D01*
X-22593Y-161326D02*
X-22260Y-160993D01*
X-21593D01*
X-21260Y-161326D01*
Y-162659D01*
X-21593Y-162992D01*
X-22260D01*
X-22593Y-162659D01*
X-23259Y-162992D02*
X-23926D01*
X-23592D01*
Y-160993D01*
X-23259Y-161326D01*
X-26258Y-160993D02*
X-25592Y-161326D01*
X-24925Y-161993D01*
Y-162659D01*
X-25258Y-162992D01*
X-25925D01*
X-26258Y-162659D01*
Y-162326D01*
X-25925Y-161993D01*
X-24925D01*
X-52908Y-41247D02*
X-52574Y-40914D01*
X-51908D01*
X-51575Y-41247D01*
Y-42580D01*
X-51908Y-42913D01*
X-52574D01*
X-52908Y-42580D01*
X-53574Y-40914D02*
X-54907D01*
Y-41247D01*
X-53574Y-42580D01*
Y-42913D01*
X-39916Y-41641D02*
X-39582Y-41308D01*
X-38916D01*
X-38583Y-41641D01*
Y-42974D01*
X-38916Y-43307D01*
X-39582D01*
X-39916Y-42974D01*
X-41915Y-41308D02*
X-41249Y-41641D01*
X-40582Y-42307D01*
Y-42974D01*
X-40915Y-43307D01*
X-41582D01*
X-41915Y-42974D01*
Y-42641D01*
X-41582Y-42307D01*
X-40582D01*
X-26136Y-41641D02*
X-25803Y-41308D01*
X-25136D01*
X-24803Y-41641D01*
Y-42974D01*
X-25136Y-43307D01*
X-25803D01*
X-26136Y-42974D01*
X-28135Y-41308D02*
X-26803D01*
Y-42307D01*
X-27469Y-41974D01*
X-27802D01*
X-28135Y-42307D01*
Y-42974D01*
X-27802Y-43307D01*
X-27136D01*
X-26803Y-42974D01*
X-70427Y-19144D02*
X-70094Y-18811D01*
X-69428D01*
X-69095Y-19144D01*
Y-20477D01*
X-69428Y-20810D01*
X-70094D01*
X-70427Y-20477D01*
X-72093Y-20810D02*
Y-18811D01*
X-71094Y-19811D01*
X-72427D01*
X-74955Y-104633D02*
X-74622Y-104300D01*
X-73955D01*
X-73622Y-104633D01*
Y-105966D01*
X-73955Y-106299D01*
X-74622D01*
X-74955Y-105966D01*
X-76954Y-106299D02*
X-75621D01*
X-76954Y-104966D01*
Y-104633D01*
X-76621Y-104300D01*
X-75955D01*
X-75621Y-104633D01*
X-51727Y-69200D02*
X-51393Y-68867D01*
X-50727D01*
X-50394Y-69200D01*
Y-70533D01*
X-50727Y-70866D01*
X-51393D01*
X-51727Y-70533D01*
X-53393Y-70866D02*
Y-68867D01*
X-52393Y-69867D01*
X-53726D01*
X-54392Y-69200D02*
X-54726Y-68867D01*
X-55392D01*
X-55725Y-69200D01*
Y-70533D01*
X-55392Y-70866D01*
X-54726D01*
X-54392Y-70533D01*
Y-69200D01*
X-56392Y-70866D02*
X-57058D01*
X-56725D01*
Y-68867D01*
X-56392Y-69200D01*
X-30709Y-206299D02*
Y-204300D01*
X-31708D01*
X-32042Y-204633D01*
Y-205299D01*
X-31708Y-205633D01*
X-30709D01*
X-31375D02*
X-32042Y-206299D01*
X-34041Y-204300D02*
X-33375Y-204633D01*
X-32708Y-205299D01*
Y-205966D01*
X-33041Y-206299D01*
X-33708D01*
X-34041Y-205966D01*
Y-205633D01*
X-33708Y-205299D01*
X-32708D01*
X-110388Y-121562D02*
X-110055Y-121229D01*
X-109388D01*
X-109055Y-121562D01*
Y-122895D01*
X-109388Y-123228D01*
X-110055D01*
X-110388Y-122895D01*
X-111055Y-123228D02*
X-111721D01*
X-111388D01*
Y-121229D01*
X-111055Y-121562D01*
X-112721D02*
X-113054Y-121229D01*
X-113720D01*
X-114053Y-121562D01*
Y-122895D01*
X-113720Y-123228D01*
X-113054D01*
X-112721Y-122895D01*
Y-121562D01*
X-114720D02*
X-115053Y-121229D01*
X-115720D01*
X-116053Y-121562D01*
Y-122895D01*
X-115720Y-123228D01*
X-115053D01*
X-114720Y-122895D01*
Y-121562D01*
X-201018Y-122350D02*
X-200685Y-122016D01*
X-200019D01*
X-199685Y-122350D01*
Y-123683D01*
X-200019Y-124016D01*
X-200685D01*
X-201018Y-123683D01*
X-201685Y-124016D02*
X-202351D01*
X-202018D01*
Y-122016D01*
X-201685Y-122350D01*
X-203351D02*
X-203684Y-122016D01*
X-204351D01*
X-204684Y-122350D01*
Y-123683D01*
X-204351Y-124016D01*
X-203684D01*
X-203351Y-123683D01*
Y-122350D01*
X-205350Y-124016D02*
X-206017D01*
X-205683D01*
Y-122016D01*
X-205350Y-122350D01*
X-98819Y-6299D02*
Y-4300D01*
X-99819D01*
X-100152Y-4633D01*
Y-5300D01*
X-99819Y-5633D01*
X-98819D01*
X-99485D02*
X-100152Y-6299D01*
X-102151D02*
X-100818D01*
X-102151Y-4966D01*
Y-4633D01*
X-101818Y-4300D01*
X-101152D01*
X-100818Y-4633D01*
X-102818Y-5966D02*
X-103151Y-6299D01*
X-103817D01*
X-104150Y-5966D01*
Y-4633D01*
X-103817Y-4300D01*
X-103151D01*
X-102818Y-4633D01*
Y-4966D01*
X-103151Y-5300D01*
X-104150D01*
X-100939Y-52665D02*
X-100606Y-52331D01*
X-99940D01*
X-99606Y-52665D01*
Y-53997D01*
X-99940Y-54331D01*
X-100606D01*
X-100939Y-53997D01*
X-101606Y-54331D02*
X-102272D01*
X-101939D01*
Y-52331D01*
X-101606Y-52665D01*
X-103272D02*
X-103605Y-52331D01*
X-104271D01*
X-104605Y-52665D01*
Y-53997D01*
X-104271Y-54331D01*
X-103605D01*
X-103272Y-53997D01*
Y-52665D01*
X-106604Y-54331D02*
X-105271D01*
X-106604Y-52998D01*
Y-52665D01*
X-106271Y-52331D01*
X-105604D01*
X-105271Y-52665D01*
X-88341Y-36129D02*
X-88008Y-35796D01*
X-87341D01*
X-87008Y-36129D01*
Y-37462D01*
X-87341Y-37795D01*
X-88008D01*
X-88341Y-37462D01*
X-89007Y-37795D02*
X-89674D01*
X-89340D01*
Y-35796D01*
X-89007Y-36129D01*
X-90673D02*
X-91007Y-35796D01*
X-91673D01*
X-92006Y-36129D01*
Y-37462D01*
X-91673Y-37795D01*
X-91007D01*
X-90673Y-37462D01*
Y-36129D01*
X-92673D02*
X-93006Y-35796D01*
X-93672D01*
X-94006Y-36129D01*
Y-36462D01*
X-93672Y-36796D01*
X-93339D01*
X-93672D01*
X-94006Y-37129D01*
Y-37462D01*
X-93672Y-37795D01*
X-93006D01*
X-92673Y-37462D01*
X-177711Y-56602D02*
X-177378Y-56268D01*
X-176711D01*
X-176378Y-56602D01*
Y-57934D01*
X-176711Y-58268D01*
X-177378D01*
X-177711Y-57934D01*
X-178377Y-58268D02*
X-179044D01*
X-178710D01*
Y-56268D01*
X-178377Y-56602D01*
X-180043D02*
X-180377Y-56268D01*
X-181043D01*
X-181376Y-56602D01*
Y-57934D01*
X-181043Y-58268D01*
X-180377D01*
X-180043Y-57934D01*
Y-56602D01*
X-183043Y-58268D02*
Y-56268D01*
X-182043Y-57268D01*
X-183376D01*
X-149364Y-56208D02*
X-149031Y-55875D01*
X-148365D01*
X-148031Y-56208D01*
Y-57541D01*
X-148365Y-57874D01*
X-149031D01*
X-149364Y-57541D01*
X-150031Y-57874D02*
X-150697D01*
X-150364D01*
Y-55875D01*
X-150031Y-56208D01*
X-151697D02*
X-152030Y-55875D01*
X-152697D01*
X-153030Y-56208D01*
Y-57541D01*
X-152697Y-57874D01*
X-152030D01*
X-151697Y-57541D01*
Y-56208D01*
X-155029Y-55875D02*
X-153696D01*
Y-56874D01*
X-154363Y-56541D01*
X-154696D01*
X-155029Y-56874D01*
Y-57541D01*
X-154696Y-57874D01*
X-154030D01*
X-153696Y-57541D01*
X-230617Y-21895D02*
X-230284Y-22229D01*
Y-22895D01*
X-230617Y-23228D01*
X-231950D01*
X-232283Y-22895D01*
Y-22229D01*
X-231950Y-21895D01*
X-232283Y-21229D02*
Y-20562D01*
Y-20896D01*
X-230284D01*
X-230617Y-21229D01*
Y-19563D02*
X-230284Y-19230D01*
Y-18563D01*
X-230617Y-18230D01*
X-231950D01*
X-232283Y-18563D01*
Y-19230D01*
X-231950Y-19563D01*
X-230617D01*
X-230284Y-16231D02*
X-230617Y-16897D01*
X-231284Y-17563D01*
X-231950D01*
X-232283Y-17230D01*
Y-16564D01*
X-231950Y-16231D01*
X-231617D01*
X-231284Y-16564D01*
Y-17563D01*
X-216142Y-53543D02*
Y-51544D01*
X-217141D01*
X-217475Y-51877D01*
Y-52544D01*
X-217141Y-52877D01*
X-216142D01*
X-216808D02*
X-217475Y-53543D01*
X-219474Y-51544D02*
X-218141D01*
Y-52544D01*
X-218808Y-52210D01*
X-219141D01*
X-219474Y-52544D01*
Y-53210D01*
X-219141Y-53543D01*
X-218474D01*
X-218141Y-53210D01*
X-220140Y-51877D02*
X-220474Y-51544D01*
X-221140D01*
X-221473Y-51877D01*
Y-52210D01*
X-221140Y-52544D01*
X-220807D01*
X-221140D01*
X-221473Y-52877D01*
Y-53210D01*
X-221140Y-53543D01*
X-220474D01*
X-220140Y-53210D01*
X-22593Y-46759D02*
X-22260Y-46426D01*
X-21593D01*
X-21260Y-46759D01*
Y-48092D01*
X-21593Y-48425D01*
X-22260D01*
X-22593Y-48092D01*
X-24259Y-48425D02*
Y-46426D01*
X-23259Y-47425D01*
X-24592D01*
X-25258Y-46759D02*
X-25592Y-46426D01*
X-26258D01*
X-26591Y-46759D01*
Y-48092D01*
X-26258Y-48425D01*
X-25592D01*
X-25258Y-48092D01*
Y-46759D01*
X-28591Y-48425D02*
X-27258D01*
X-28591Y-47092D01*
Y-46759D01*
X-28258Y-46426D01*
X-27591D01*
X-27258Y-46759D01*
D158*
X-105118Y-22047D02*
Y-1575D01*
X-127165Y-22047D02*
X-105118D01*
X-127165D02*
Y-1575D01*
X-154331Y-22047D02*
Y-1575D01*
X-176378Y-22047D02*
X-154331D01*
X-176378D02*
Y-1575D01*
X-225590Y-22047D02*
Y-1575D01*
Y-22047D02*
X-203543D01*
Y-1575D01*
M02*
