G04*
G04 #@! TF.GenerationSoftware,Altium Limited,Altium Designer,19.1.8 (144)*
G04*
G04 Layer_Color=8421504*
%FSLAX25Y25*%
%MOIN*%
G70*
G01*
G75*
%ADD17R,0.07087X0.05512*%
%ADD18R,0.07087X0.13189*%
%ADD19R,0.03937X0.00500*%
%ADD20R,0.04331X0.06693*%
%ADD21R,0.02756X0.05118*%
%ADD22R,0.04331X0.03347*%
%ADD23R,0.03740X0.01968*%
%ADD24R,0.24803X0.14567*%
%ADD25O,0.01181X0.05512*%
%ADD26C,0.02400*%
%ADD27R,0.03543X0.08465*%
%ADD28R,0.12598X0.08465*%
%ADD29R,0.09055X0.06496*%
%ADD30R,0.04200X0.04500*%
%ADD31O,0.05512X0.01181*%
%ADD32R,0.01968X0.03740*%
%ADD33R,0.08661X0.08071*%
%ADD34R,0.20000X0.20000*%
%ADD35R,0.04331X0.03937*%
%ADD36R,0.11000X0.15000*%
D17*
X-13780Y-69587D02*
D03*
Y-58760D02*
D03*
Y-39862D02*
D03*
Y-50689D02*
D03*
X-82677Y-56595D02*
D03*
Y-67421D02*
D03*
X-82284Y-47539D02*
D03*
Y-36713D02*
D03*
D18*
X-122835Y-14173D02*
D03*
X-102362D02*
D03*
X-151181Y-14567D02*
D03*
X-171653D02*
D03*
X-221260Y-14173D02*
D03*
X-200787D02*
D03*
D19*
X-105905D02*
D03*
X-119291D02*
D03*
X-168110Y-14567D02*
D03*
X-154724D02*
D03*
X-204331Y-14173D02*
D03*
X-217717D02*
D03*
D20*
X-227953Y-29921D02*
D03*
Y-38583D02*
D03*
Y-47244D02*
D03*
X-192520D02*
D03*
Y-38583D02*
D03*
Y-29921D02*
D03*
X-228150Y-61122D02*
D03*
Y-69784D02*
D03*
Y-78445D02*
D03*
X-192717D02*
D03*
Y-69784D02*
D03*
Y-61122D02*
D03*
X-183858Y-29921D02*
D03*
Y-38583D02*
D03*
Y-47244D02*
D03*
X-148425D02*
D03*
Y-38583D02*
D03*
Y-29921D02*
D03*
X-183858Y-61122D02*
D03*
Y-69784D02*
D03*
Y-78445D02*
D03*
X-148425D02*
D03*
Y-69784D02*
D03*
Y-61122D02*
D03*
X-139173Y-30217D02*
D03*
Y-38878D02*
D03*
Y-47539D02*
D03*
X-103740D02*
D03*
Y-38878D02*
D03*
Y-30217D02*
D03*
X-139370Y-61122D02*
D03*
Y-69784D02*
D03*
Y-78445D02*
D03*
X-103937D02*
D03*
Y-69784D02*
D03*
Y-61122D02*
D03*
D21*
X-219094Y-38583D02*
D03*
X-219291Y-69784D02*
D03*
X-175000Y-38583D02*
D03*
X-175000Y-69784D02*
D03*
X-130315Y-38878D02*
D03*
X-130512Y-69784D02*
D03*
D22*
X-202559Y-31791D02*
D03*
Y-36319D02*
D03*
Y-40846D02*
D03*
Y-45374D02*
D03*
X-213583D02*
D03*
Y-40846D02*
D03*
Y-36319D02*
D03*
Y-31791D02*
D03*
X-202756Y-62992D02*
D03*
Y-67520D02*
D03*
Y-72047D02*
D03*
Y-76575D02*
D03*
X-213779D02*
D03*
Y-72047D02*
D03*
Y-67520D02*
D03*
Y-62992D02*
D03*
X-158465Y-31791D02*
D03*
Y-36319D02*
D03*
Y-40846D02*
D03*
Y-45374D02*
D03*
X-169488D02*
D03*
Y-40846D02*
D03*
Y-36319D02*
D03*
Y-31791D02*
D03*
X-158465Y-62992D02*
D03*
Y-67520D02*
D03*
Y-72047D02*
D03*
Y-76575D02*
D03*
X-169488D02*
D03*
Y-72047D02*
D03*
Y-67520D02*
D03*
Y-62992D02*
D03*
X-113779Y-32087D02*
D03*
Y-36614D02*
D03*
Y-41142D02*
D03*
Y-45669D02*
D03*
X-124803D02*
D03*
Y-41142D02*
D03*
Y-36614D02*
D03*
Y-32087D02*
D03*
X-113976Y-62992D02*
D03*
Y-67520D02*
D03*
Y-72047D02*
D03*
Y-76575D02*
D03*
X-125000D02*
D03*
Y-72047D02*
D03*
Y-67520D02*
D03*
Y-62992D02*
D03*
D23*
X-74410Y-41283D02*
D03*
Y-35883D02*
D03*
X-73819Y-94235D02*
D03*
Y-88835D02*
D03*
X-66929D02*
D03*
Y-94235D02*
D03*
X-90551Y-107424D02*
D03*
Y-102024D02*
D03*
X-60039Y-94235D02*
D03*
Y-88835D02*
D03*
X-54331Y-210292D02*
D03*
Y-215692D02*
D03*
X-64961Y-214314D02*
D03*
Y-208914D02*
D03*
X-66929Y-41283D02*
D03*
Y-35883D02*
D03*
X-71850Y-122779D02*
D03*
Y-117379D02*
D03*
X-25591Y-94235D02*
D03*
Y-88835D02*
D03*
X-46260Y-94235D02*
D03*
Y-88835D02*
D03*
X-32480Y-94235D02*
D03*
Y-88835D02*
D03*
X-53150D02*
D03*
Y-94235D02*
D03*
X-46063Y-215692D02*
D03*
Y-210292D02*
D03*
X-12992Y-198087D02*
D03*
Y-203487D02*
D03*
X-18701Y-152812D02*
D03*
X-18701Y-158212D02*
D03*
D24*
X-47244Y-65945D02*
D03*
D25*
X-20669Y-50984D02*
D03*
X-22638D02*
D03*
X-24606D02*
D03*
X-26575D02*
D03*
X-28543D02*
D03*
X-30512D02*
D03*
X-32480D02*
D03*
X-34449D02*
D03*
X-36417D02*
D03*
X-38386D02*
D03*
X-40354D02*
D03*
X-42323D02*
D03*
X-44291D02*
D03*
X-46260D02*
D03*
X-48228D02*
D03*
X-50197D02*
D03*
X-52165D02*
D03*
X-54134D02*
D03*
X-56102D02*
D03*
X-58071D02*
D03*
X-60039D02*
D03*
X-62008D02*
D03*
X-63976D02*
D03*
X-65945D02*
D03*
X-67913D02*
D03*
X-69882D02*
D03*
X-71850D02*
D03*
X-73819D02*
D03*
X-20669Y-80905D02*
D03*
X-22638D02*
D03*
X-24606D02*
D03*
X-26575D02*
D03*
X-28543D02*
D03*
X-30512D02*
D03*
X-32480D02*
D03*
X-34449D02*
D03*
X-36417D02*
D03*
X-38386D02*
D03*
X-40354D02*
D03*
X-42323D02*
D03*
X-44291D02*
D03*
X-46260D02*
D03*
X-48228D02*
D03*
X-50197D02*
D03*
X-52165D02*
D03*
X-54134D02*
D03*
X-56102D02*
D03*
X-58071D02*
D03*
X-60039D02*
D03*
X-62008D02*
D03*
X-63976D02*
D03*
X-65945D02*
D03*
X-67913D02*
D03*
X-69882D02*
D03*
X-71850D02*
D03*
X-73819D02*
D03*
X-49705Y-157677D02*
D03*
X-47736D02*
D03*
X-55610D02*
D03*
X-53642D02*
D03*
X-51673D02*
D03*
X-45768D02*
D03*
X-43799D02*
D03*
X-41831D02*
D03*
X-39862D02*
D03*
X-37894D02*
D03*
X-35925D02*
D03*
X-33957D02*
D03*
X-31988D02*
D03*
X-30020D02*
D03*
X-28051D02*
D03*
X-26083D02*
D03*
Y-202559D02*
D03*
X-28051D02*
D03*
X-30020D02*
D03*
X-31988D02*
D03*
X-33957D02*
D03*
X-35925D02*
D03*
X-37894D02*
D03*
X-39862D02*
D03*
X-41831D02*
D03*
X-43799D02*
D03*
X-45768D02*
D03*
X-47736D02*
D03*
X-49705D02*
D03*
X-51673D02*
D03*
X-53642D02*
D03*
X-55610D02*
D03*
D26*
X-167323Y-44882D02*
D03*
X-211417D02*
D03*
X-116142Y-31102D02*
D03*
X-211614Y-76083D02*
D03*
X-167323D02*
D03*
X-122835D02*
D03*
D27*
X-45079Y-103642D02*
D03*
X-54134D02*
D03*
X-63189D02*
D03*
D28*
X-54134Y-126673D02*
D03*
D29*
X-70866Y-16043D02*
D03*
Y-28051D02*
D03*
X-32480Y-126083D02*
D03*
Y-114075D02*
D03*
D30*
X-27165Y-215354D02*
D03*
X-36614Y-231890D02*
D03*
Y-215354D02*
D03*
X-27165Y-231890D02*
D03*
D31*
X-63287Y-194882D02*
D03*
Y-192913D02*
D03*
Y-190945D02*
D03*
Y-188976D02*
D03*
Y-187008D02*
D03*
Y-185039D02*
D03*
Y-183071D02*
D03*
Y-181102D02*
D03*
Y-179134D02*
D03*
Y-177165D02*
D03*
Y-175197D02*
D03*
Y-173228D02*
D03*
Y-171260D02*
D03*
Y-169291D02*
D03*
Y-167323D02*
D03*
Y-165354D02*
D03*
X-18406D02*
D03*
Y-167323D02*
D03*
Y-169291D02*
D03*
Y-171260D02*
D03*
Y-173228D02*
D03*
Y-175197D02*
D03*
Y-177165D02*
D03*
Y-179134D02*
D03*
Y-181102D02*
D03*
Y-183071D02*
D03*
Y-185039D02*
D03*
Y-187008D02*
D03*
Y-188976D02*
D03*
Y-190945D02*
D03*
Y-192913D02*
D03*
Y-194882D02*
D03*
D32*
X-77503Y-136811D02*
D03*
X-72103D02*
D03*
X-77503Y-144685D02*
D03*
X-72103D02*
D03*
Y-152559D02*
D03*
X-77503D02*
D03*
X-14623Y-209449D02*
D03*
X-20023D02*
D03*
X-36165Y-40354D02*
D03*
X-30765D02*
D03*
X-46991D02*
D03*
X-41591D02*
D03*
X-57818D02*
D03*
X-52418D02*
D03*
X-61755Y-141732D02*
D03*
X-56355D02*
D03*
X-68645Y-201772D02*
D03*
X-63245D02*
D03*
X-61755Y-148622D02*
D03*
X-56355D02*
D03*
D33*
X-42126Y-31988D02*
D03*
Y-15256D02*
D03*
D34*
X-159449Y-136811D02*
D03*
D35*
X-58661Y-32087D02*
D03*
Y-19882D02*
D03*
D36*
X-145399Y-108268D02*
D03*
X-173499D02*
D03*
M02*
