G04*
G04 #@! TF.GenerationSoftware,Altium Limited,Altium Designer,19.1.8 (144)*
G04*
G04 Layer_Color=16711935*
%FSLAX25Y25*%
%MOIN*%
G70*
G01*
G75*
%ADD14C,0.00700*%
%ADD128C,0.00701*%
D14*
X0Y-224803D02*
Y-11417D01*
X-81693Y-236221D02*
X-11417D01*
X-236221Y-126969D02*
Y-11417D01*
X-224803Y-0D02*
X-11424D01*
X-81693Y-236221D02*
Y-126969D01*
X-148622D02*
X-81693D01*
X-236221D02*
X-170276D01*
D128*
X-11417Y-236227D02*
G03*
X7Y-224803I0J11424D01*
G01*
X-224803Y7D02*
G03*
X-236227Y-11417I0J-11424D01*
G01*
X0D02*
G03*
X-11424Y7I-11424J0D01*
G01*
X-148622Y-215551D02*
Y-213583D01*
X-150591Y-217520D02*
X-148622Y-215551D01*
X-150591Y-227362D02*
Y-217520D01*
Y-211614D02*
X-148622Y-213583D01*
X-150591Y-211614D02*
Y-187992D01*
X-170276Y-215551D02*
Y-213583D01*
X-168307Y-211614D01*
Y-211614D01*
Y-187992D01*
X-170276Y-215551D02*
X-168307Y-217520D01*
Y-227362D02*
Y-217520D01*
X-148622Y-186024D02*
Y-126969D01*
Y-232283D02*
Y-229331D01*
X-170276Y-186024D02*
Y-126969D01*
Y-232283D02*
Y-229331D01*
Y-232283D02*
X-148622D01*
X-170276Y-229331D02*
X-168307Y-227362D01*
X-150591Y-187992D02*
X-148622Y-186024D01*
X-150591Y-227362D02*
X-148622Y-229331D01*
X-170276Y-186024D02*
X-168307Y-187992D01*
M02*
