G04*
G04 #@! TF.GenerationSoftware,Altium Limited,Altium Designer,19.1.8 (144)*
G04*
G04 Layer_Color=16711935*
%FSLAX25Y25*%
%MOIN*%
G70*
G01*
G75*
%ADD38R,0.07887X0.06312*%
%ADD44R,0.04540X0.02769*%
%ADD51R,0.02769X0.04540*%
%ADD53R,0.20800X0.20800*%
%ADD56C,0.23635*%
%ADD57C,0.08000*%
%ADD58C,0.06312*%
%ADD59C,0.06800*%
%ADD60O,0.12800X0.08800*%
%ADD61O,0.05721X0.04540*%
%ADD62O,0.04147X0.06902*%
%ADD118O,0.06115X0.02375*%
%ADD119R,0.20800X0.20800*%
%ADD120R,0.08674X0.07296*%
%ADD121R,0.07060X0.10249*%
%ADD122R,0.04147X0.01784*%
%ADD123R,0.05131X0.06902*%
%ADD124R,0.02375X0.06115*%
%ADD125R,0.06706X0.06902*%
D38*
X-176772Y-57776D02*
D03*
Y-46949D02*
D03*
X-132283Y-46949D02*
D03*
Y-57776D02*
D03*
X-151575Y-46949D02*
D03*
Y-57776D02*
D03*
X-220866Y-57776D02*
D03*
Y-46949D02*
D03*
X-107087Y-57874D02*
D03*
Y-47047D02*
D03*
X-196063Y-57776D02*
D03*
Y-46949D02*
D03*
D44*
X-34449Y-133127D02*
D03*
Y-138527D02*
D03*
Y-127700D02*
D03*
Y-122300D02*
D03*
X-47244Y-161165D02*
D03*
Y-155765D02*
D03*
X-36417Y-161165D02*
D03*
Y-155765D02*
D03*
X-25591Y-161165D02*
D03*
Y-155765D02*
D03*
X-90551Y-60292D02*
D03*
Y-65692D02*
D03*
Y-45528D02*
D03*
Y-50928D02*
D03*
Y-75056D02*
D03*
Y-80456D02*
D03*
X-50197Y-67661D02*
D03*
Y-62261D02*
D03*
X-32677Y-209898D02*
D03*
Y-215298D02*
D03*
X-62008Y-130653D02*
D03*
Y-125253D02*
D03*
X-66142Y-30400D02*
D03*
Y-25000D02*
D03*
X-60039Y-101125D02*
D03*
Y-95725D02*
D03*
X-85630Y-113442D02*
D03*
Y-118842D02*
D03*
X-73032Y-25000D02*
D03*
Y-30400D02*
D03*
X-52362D02*
D03*
Y-25000D02*
D03*
X-38583Y-30400D02*
D03*
Y-25000D02*
D03*
X-24803Y-30400D02*
D03*
Y-25000D02*
D03*
X-31693D02*
D03*
Y-30400D02*
D03*
X-45472Y-25000D02*
D03*
Y-30400D02*
D03*
X-59252Y-25000D02*
D03*
Y-30400D02*
D03*
X-66929Y-101125D02*
D03*
Y-95725D02*
D03*
X-53150Y-101125D02*
D03*
Y-95725D02*
D03*
X-73819Y-101125D02*
D03*
Y-95725D02*
D03*
X-57087Y-62261D02*
D03*
Y-67661D02*
D03*
X-43307Y-62261D02*
D03*
Y-67661D02*
D03*
X-35433Y-68166D02*
D03*
Y-73566D02*
D03*
X-28543Y-68166D02*
D03*
Y-73566D02*
D03*
X-21654Y-68166D02*
D03*
Y-73566D02*
D03*
X-51181Y-200056D02*
D03*
Y-205456D02*
D03*
X-58268Y-200056D02*
D03*
Y-205456D02*
D03*
D51*
X-44544Y-148622D02*
D03*
X-49944D02*
D03*
X-33717D02*
D03*
X-39117D02*
D03*
X-22891D02*
D03*
X-28291D02*
D03*
X-77503Y-110237D02*
D03*
X-72102D02*
D03*
X-35180Y-36670D02*
D03*
X-29780D02*
D03*
X-48960D02*
D03*
X-43560D02*
D03*
X-62739D02*
D03*
X-57339D02*
D03*
X-30259Y-168307D02*
D03*
X-24859D02*
D03*
X-59787Y-156496D02*
D03*
X-54387D02*
D03*
X-60292Y-110236D02*
D03*
X-65692D02*
D03*
X-72102Y-118111D02*
D03*
X-77503D02*
D03*
X-17969Y-60039D02*
D03*
X-23369D02*
D03*
X-11558D02*
D03*
X-6158D02*
D03*
X-17969Y-53150D02*
D03*
X-23369D02*
D03*
X-11558D02*
D03*
X-6158D02*
D03*
X-17969Y-46260D02*
D03*
X-23369D02*
D03*
X-11558D02*
D03*
X-6158D02*
D03*
X-59787Y-163386D02*
D03*
X-54387Y-163386D02*
D03*
X-43560Y-190946D02*
D03*
X-48960D02*
D03*
X-43560Y-184056D02*
D03*
X-48960D02*
D03*
X-43560Y-177166D02*
D03*
X-48960D02*
D03*
X-54387Y-170276D02*
D03*
X-59787D02*
D03*
X-37149Y-177166D02*
D03*
X-31749D02*
D03*
X-37149Y-190946D02*
D03*
X-31749D02*
D03*
X-37149Y-184056D02*
D03*
X-31749D02*
D03*
D53*
X-214567Y-10827D02*
D03*
X-116142D02*
D03*
X-159449Y-136811D02*
D03*
D56*
X-11417Y-224803D02*
D03*
X-224803Y-99606D02*
D03*
X-11417Y-11417D02*
D03*
D57*
X-218386Y-122047D02*
D03*
X-188859Y-122047D02*
D03*
X-100276Y-122047D02*
D03*
X-129803Y-122047D02*
D03*
D58*
X-6890Y-139764D02*
D03*
Y-131890D02*
D03*
Y-124016D02*
D03*
Y-116142D02*
D03*
X-57086Y-6889D02*
D03*
X-49212D02*
D03*
X-41338D02*
D03*
X-33464D02*
D03*
X-74803Y-186024D02*
D03*
Y-178150D02*
D03*
Y-170276D02*
D03*
Y-162402D02*
D03*
X-6890Y-204724D02*
D03*
Y-196850D02*
D03*
Y-188976D02*
D03*
Y-181102D02*
D03*
D59*
X-72834Y-6889D02*
D03*
X-64960D02*
D03*
X-74803Y-201772D02*
D03*
Y-193898D02*
D03*
X-6890Y-173228D02*
D03*
Y-165354D02*
D03*
Y-157480D02*
D03*
D60*
X-7874Y-81693D02*
D03*
Y-91693D02*
D03*
Y-101693D02*
D03*
D61*
X-68110Y-220472D02*
D03*
X-48425D02*
D03*
D62*
X-72048Y-231102D02*
D03*
X-44487D02*
D03*
D118*
X-66043Y-48327D02*
D03*
X-83563Y-56004D02*
D03*
Y-53445D02*
D03*
Y-50886D02*
D03*
X-66043Y-56004D02*
D03*
Y-53445D02*
D03*
Y-50886D02*
D03*
X-83563Y-70768D02*
D03*
Y-68209D02*
D03*
Y-65650D02*
D03*
Y-63090D02*
D03*
X-66043Y-70768D02*
D03*
Y-68209D02*
D03*
Y-65650D02*
D03*
Y-63090D02*
D03*
X-83563Y-85532D02*
D03*
Y-82972D02*
D03*
Y-80413D02*
D03*
Y-77854D02*
D03*
X-66043Y-85532D02*
D03*
Y-82972D02*
D03*
Y-80413D02*
D03*
Y-77854D02*
D03*
X-83563Y-48327D02*
D03*
D119*
X-165354Y-10827D02*
D03*
D120*
X-28051Y-111221D02*
D03*
X-42815D02*
D03*
D121*
X-48228Y-132874D02*
D03*
D122*
X-42638Y-129035D02*
D03*
Y-131595D02*
D03*
Y-134153D02*
D03*
Y-136713D02*
D03*
X-53819Y-129035D02*
D03*
Y-131595D02*
D03*
Y-134153D02*
D03*
Y-136713D02*
D03*
D123*
X-69685Y-231102D02*
D03*
X-46850D02*
D03*
D124*
X-58268Y-220472D02*
D03*
X-55709D02*
D03*
X-60827D02*
D03*
X-53150D02*
D03*
X-63386D02*
D03*
D125*
X-53740Y-231102D02*
D03*
X-62795D02*
D03*
M02*
