M48
;Layer_Color=9474304
;FILE_FORMAT=2:5
INCH,LZ
;TYPE=PLATED
T1F00S00C0.01200
T4F00S00C0.02756
T5F00S00C0.03000
T6F00S00C0.03543
T7F00S00C0.04500
T8F00S00C0.13386
%
T01
X-0078106Y-0229972
X-0027559Y-0227559
X-0205315Y-0076083
Y-0073721
Y-0071358
Y-0068996
X-020689Y-0070177
Y-0072539
Y-0074902
Y-0077264
X-0208465Y-0076083
Y-0073721
Y-0071358
Y-0068996
X-0210039Y-0070177
Y-0072539
Y-0074902
Y-0077264
X-0211614Y-0076083
X-0211614Y-0073721
Y-0071358
Y-0068996
X-0167323
Y-0071358
Y-0073721
X-0167323Y-0076083
X-0165748Y-0077264
Y-0074902
Y-0072539
Y-0070177
X-0164173Y-0068996
Y-0071358
Y-0073721
Y-0076083
X-0162598Y-0077264
Y-0074902
Y-0072539
Y-0070177
X-0161024Y-0071358
Y-0068996
Y-0073721
Y-0076083
X-0169291Y-010315
X-0170866Y-0101969
Y-0104331
X-0172441Y-010315
X-0174409
X-0175984Y-0101969
Y-0104331
X-0177559Y-010315
Y-0112992
X-0175984Y-0114173
Y-0111811
X-0174409Y-0112992
X-0172441
X-0170866Y-0111811
Y-0114173
X-0169291Y-0112992
X-0090551Y-0113189
X-008563Y-0117126
X-0080709Y-0114173
X-0086614Y-0108267
X-008189Y-01
X-007874Y-008937
X-0089567Y-0090551
X-0090551Y-0078683
X-009439Y-0073819
X-0076771Y-0074803
X-0073622Y-0075197
X-0077165Y-0069685
X-0061046Y-007625
X-005448Y-0075128
X-0049213Y-007559
X-0045276Y-0075787
X-0041339Y-0075787
X-0036417Y-0076772
X-003248Y-0076771
X-003248Y-0070866
X-0025674Y-007625
X-0038386Y-008563
X-0044291Y-008563
X-0042391Y-0088317
X-0036614Y-0091732
X-0038189Y-0098425
X-0037795Y-0104331
X-0031496Y-0101378
X-0048819Y-0100787
X-0051181Y-0114567
X-0043307Y-0121063
X-0047244Y-0139498
X-004626Y-0142716
X-0052165
X-0039117Y-0144432
X-0042323Y-0152559
X-004178Y-0163487
X-003868Y-016437
X-003558
X-0043768Y-0166766
X-0051968Y-0166929
X-0055658Y-0174213
X-0054134Y-0177165
X-0052165Y-0180118
X-0051845Y-0183218
X-0057087Y-0182087
X-0055118Y-0187992
X-0058071Y-0190945
X-0056274Y-0195745
X-0053174Y-0194882
X-005042Y-0197074
X-0043799Y-0197343
X-0039862Y-0197343
X-0041464Y-0187501
X-0034449Y-0187992
Y-0180118
X-0027559Y-0181102
X-0025591Y-0187008
X-0025738Y-019685
X-0028838
X-0029675Y-0207359
X-0025591Y-0208661
X-0036614Y-0207874
X-0041831Y-0207185
X-0043106Y-0219972
X-0045606Y-0224972
X-0050606
X-0040606
X-0030606
X-0025606
X-0028106Y-0219972
X-0033106
X-0067913Y-0223425
X-0070606Y-0224972
X-0075606
X-0078106Y-0219972
X-0073106
X-0074803Y-021752
X-0070606Y-0214972
X-0073106Y-0209972
X-0078106
Y-0189972
X-0067913Y-0165354
X-0066683Y-0159596
X-0067913Y-0156496
X-0064412Y-0152559
X-0066929Y-0149606
X-0065945Y-0135827
X-0065945Y-0127953
Y-011811
X-0074803Y-0125984
X-0074677Y-0107212
X-0064088Y-0091535
X-0061023Y-008563
X-0054331Y-0085827
X-0028346Y-0131102
X-0031544Y-0135779
X-0027953Y-0138976
X-0024606Y-0143701
X-0028746Y-0152392
X-0061883Y-0159941
X-0116535Y-0076083
Y-0073721
Y-0071358
Y-0068996
X-011811Y-0070177
Y-0072539
Y-0074902
Y-0077264
X-0119685Y-0076083
Y-0073721
Y-0071358
Y-0068996
X-012126Y-0070177
Y-0072539
Y-0074902
Y-0077264
X-0122835Y-0076083
X-0122835Y-0073721
Y-0071358
Y-0068996
X-0008858Y-0073819
X-0005906
X-0003106Y-0069972
Y-0109972
Y-0119972
X-0018106
X-0020606Y-0124972
X-0020669Y-0128937
X-0019685Y-0137795
X-0011811Y-0137008
X-0005606Y-0144972
X-0004921Y-0148622
X-0008106Y-0149972
X-0019685Y-0148622
X-0019409Y-0161096
X-0012795Y-0162402
X-0012795Y-0170275
X-001179Y-0174633
X-001378Y-0177165
X-0023622Y-0172244
X-0003106Y-0169972
Y-0199972
Y-0209972
X-0008106
X-0020606Y-0214972
X-0022638Y-019685
X-0020606Y-0114972
X-0015606
X-0014567Y-0063779
X-0008336Y-0056676
X-0003106Y-0059972
Y-0049972
Y-0039972
X-0008106
X-0010606Y-0034972
X-0005606
X-0008106Y-0029972
X-0003106
X-0005606Y-0024972
X-0010606
X-0015606
X-0019685Y-002874
X-0012795Y-0030512
X-0014764Y-0045276
X-0023106Y-0019972
X-0025606Y-0014972
X-0028106Y-0009972
X-0025606Y-0004972
X-0035039Y-0020866
X-0033025Y-0033284
X-0024859Y-003667
X-0030512Y-0045276
X-0034449Y-0045276
X-0040354
X-0044291Y-0045276
X-0050197Y-0044291
X-0054134Y-0044291
X-0060236Y-0044094
X-0059787Y-003667
X-0071467Y-0033284
X-0076809Y-0032998
X-008189Y-0042126
X-0088583Y-0041339
X-0093504Y-0042323
Y-0049213
X-0093619Y-0062765
X-0088121Y-0062808
X-0076353Y-0061024
X-0073253
X-0072047Y-0066142
X-0076771Y-0051181
X-0056102Y-0056102
X-0052165Y-0056102
X-0047244Y-0056102
X-0042323Y-0056102
X-0036417
X-0031496Y-0056102
X-0053106Y-0019972
X-0061024Y-0019685
X-0069882Y-0021654
X-0078106Y-0019972
X-0088106
X-0085606Y-0014972
X-0088106Y-0009972
X-0083106
X-0085606Y-0004972
X-0090606
X-009685Y-0006312
Y-0003212
X-0080606Y-0004972
X-0053106Y-0009972
X-0121161Y-0006496
Y-0004134
X-0122736Y-0002953
Y-0005315
X-0124311Y-0004134
Y-0006496
X-0125886Y-0007677
Y-0010039
Y-0012402
Y-0014764
Y-0017126
X-0127461Y-0015945
Y-0018307
X-0129035Y-0017126
Y-0014764
Y-0012402
Y-0010039
Y-0007677
Y-0005315
Y-0002953
X-0127461Y-0004134
Y-0006496
Y-0008858
Y-001122
Y-0013583
X-013061
Y-001122
Y-0008858
Y-0006496
Y-0004134
X-0132185Y-0002953
Y-0005315
Y-0007677
Y-0010039
Y-0012402
Y-0014764
Y-0017126
X-013061Y-0015945
Y-0018307
X-013376
Y-0015945
Y-0013583
Y-001122
Y-0008858
Y-0006496
Y-0004134
X-0135335Y-0005315
Y-0002953
X-0136909Y-0004134
Y-0006496
Y-0008858
Y-001122
Y-0013583
Y-0015945
Y-0018307
X-0135335Y-0017126
Y-0014764
Y-0012402
Y-0010039
Y-0007677
X-0145669Y-0006706
Y-0003605
X-0125886Y-0002953
Y-0005315
X-0122638Y-0031004
Y-0033366
Y-0035728
Y-0038091
Y-0040453
Y-0042815
Y-0045177
X-0121063Y-0046358
Y-0043996
Y-0041634
Y-0039272
Y-0036909
Y-0034547
Y-0032185
X-0119488Y-0031004
Y-0033366
Y-0035728
Y-0038091
Y-0040453
Y-0042815
Y-0045177
X-0117913Y-0046358
Y-0043996
Y-0041634
Y-0039272
Y-0036909
Y-0034547
Y-0032185
X-0116339Y-0033366
Y-0035728
Y-0038091
Y-0040453
Y-0042815
Y-0045177
X-0116142Y-0031102
X-0130315Y-003435
X-0129921Y-0056299
X-0132283
X-0134646
X-0133465Y-0057874
X-0131102
X-0129921Y-0059449
X-0132283
X-0134646
X-0130512Y-0065256
X-0122835Y-0064272
Y-006191
X-012126Y-006309
Y-0065453
Y-0067815
X-0119685Y-0066634
Y-0064272
Y-006191
X-011811Y-006309
Y-0065453
Y-0067815
X-0116535Y-0066634
Y-0064272
X-0116535Y-006191
X-0109449Y-0059547
X-0107087
X-0104724
X-0105905Y-0057973
X-0108268
X-0107087Y-0056398
X-0104724
X-0109449
X-0122835Y-0066634
X-0149213Y-0059449
X-0151575
X-0153937
X-0152756Y-0057874
X-0150394
X-0149213Y-0056299
X-0151575
X-0153937
X-0161024Y-006191
X-0161024Y-0064272
Y-0066634
X-0162598Y-0065453
Y-006309
X-0164173Y-006191
Y-0064272
Y-0066634
X-0165748Y-0067815
Y-0065453
Y-006309
X-0167323Y-006191
Y-0064272
Y-0066634
X-0162598Y-0067815
X-0175Y-0065256
X-0174409Y-0059449
X-0176772
X-0179134
X-0177953Y-0057874
X-0175591
X-0174409Y-0056299
X-0176772
X-0179134
X-0167323Y-0044882
X-0167323Y-004252
Y-0040157
Y-0037795
Y-0035433
Y-0033071
Y-0030709
X-0165748Y-003189
Y-0034252
Y-0036614
Y-0038976
Y-0041339
Y-0043701
Y-0046063
X-0164173Y-0044882
Y-004252
Y-0040157
Y-0037795
Y-0035433
Y-0033071
Y-0030709
X-0162598Y-003189
Y-0034252
Y-0036614
Y-0038976
Y-0041339
Y-0043701
Y-0046063
X-0161024Y-0044882
Y-004252
Y-0040157
Y-0037795
Y-0035433
Y-0033071
X-0161024Y-0030709
X-0175Y-0034055
X-0174705Y-0019882
X-0174705Y-001752
Y-0015157
Y-0012795
Y-0010433
Y-0008071
Y-0005709
Y-0003347
X-0176279Y-0004528
Y-000689
Y-0009252
Y-0011614
Y-0013976
Y-0016339
Y-0018701
X-0177854Y-001752
Y-0019882
X-0179429Y-0018701
Y-0016339
Y-0013976
Y-0011614
Y-0009252
Y-000689
Y-0004528
X-0177854Y-0003347
Y-0005709
Y-0008071
Y-0010433
Y-0012795
Y-0015157
X-017313Y-000689
Y-0004528
X-0171555Y-0003347
Y-0005709
X-016998Y-0004528
Y-000689
X-0181004Y-0008071
Y-0010433
Y-0012795
Y-0015157
Y-001752
Y-0019882
X-0182579Y-0018701
Y-0016339
Y-0013976
Y-0011614
Y-0009252
Y-000689
Y-0004528
X-0184153Y-0005709
Y-0003347
X-0185728Y-0004528
Y-000689
Y-0009252
Y-0011614
Y-0013976
Y-0016339
Y-0018701
X-0184153Y-001752
Y-0019882
Y-0015157
Y-0012795
Y-0010433
Y-0008071
X-0181004Y-0005709
Y-0003347
X-0195276Y-0003212
Y-0006312
X-0219587Y-0006496
Y-0004134
X-0221161Y-0002953
Y-0005315
X-0222736Y-0004134
Y-0006496
X-0224311Y-0007677
Y-0010039
Y-0012402
Y-0014764
Y-0017126
X-0224311Y-0019488
X-0224311Y-0021457
X-0225886Y-0020276
Y-0018307
Y-0015945
Y-0013583
Y-001122
Y-0008858
Y-0006496
Y-0004134
X-0227461Y-0005315
Y-0007677
Y-0010039
Y-0012402
Y-0014764
Y-0017126
Y-0019488
Y-0021457
X-0229035Y-0020276
Y-0018307
Y-0015945
Y-0013583
Y-001122
Y-0008858
Y-0006496
Y-0004134
X-023061Y-0005315
Y-0007677
Y-0010039
Y-0012402
Y-0014764
Y-0017126
Y-0019488
Y-0021457
X-0232185Y-0020276
Y-0018307
Y-0015945
Y-0013583
Y-001122
Y-0008858
Y-0006496
X-0224311Y-0005315
Y-0002953
X-0219094Y-0034055
X-0211417Y-0033071
Y-0030709
X-0209842Y-003189
Y-0034252
Y-0036614
Y-0038976
Y-0041339
Y-0043701
Y-0046063
X-0208268Y-0044882
Y-004252
Y-0040157
Y-0037795
Y-0035433
Y-0033071
Y-0030709
X-0206693Y-003189
Y-0034252
Y-0036614
Y-0038976
Y-0041339
Y-0043701
Y-0046063
X-0205118Y-0044882
Y-004252
Y-0040157
Y-0037795
Y-0035433
Y-0033071
X-0205118Y-0030709
X-0211417Y-0035433
Y-0037795
Y-0040157
Y-004252
X-0211417Y-0044882
X-0211614Y-006191
Y-0064272
Y-0066634
X-0210039Y-0067815
Y-0065453
Y-006309
X-0208465Y-0064272
Y-006191
X-020689Y-006309
Y-0065453
Y-0067815
X-0208465Y-0066634
X-0205315Y-0066634
Y-0064272
X-0205315Y-006191
X-0198425Y-0059449
X-0196063
X-0193701
X-0194882Y-0057874
X-0197244
X-0196063Y-0056299
X-0193701
X-0198425
X-0218504
X-0220866
X-0223228
X-0222047Y-0057874
X-0219685
X-0220866Y-0059449
X-0218504
X-0223228
X-0219291Y-0065256
T04
X-0074803Y-0186024
Y-017815
Y-0170276
Y-0162402
X-000689Y-0181102
Y-0188976
Y-019685
Y-0204724
X-000689Y-0139764
Y-013189
Y-0124016
Y-0116142
X-0033464Y-0006889
X-0041338
X-0049212
X-0057086
T05
X-0074803Y-0201772
Y-0193898
X-000689Y-0173228
Y-0165354
Y-015748
X-006496Y-0006889
X-0072834
T06
X-0218386Y-0122047
X-0188859Y-0122047
X-0129803Y-0122047
X-0100276Y-0122047
T07
X-0007874Y-0101693
Y-0091693
Y-0081693
T08
X-0224803Y-0099606
X-0011417Y-0224803
Y-0011417
M30
