M48
;Layer_Color=9474304
;FILE_FORMAT=2:5
INCH,LZ
;TYPE=PLATED
T1F00S00C0.01200
T2F00S00C0.01500
T5F00S00C0.02756
T6F00S00C0.03000
T7F00S00C0.03543
T8F00S00C0.04500
T9F00S00C0.13386
%
T01
X-0033106Y-0229972
X-0188976Y-009252
X-0192815Y-0074803
Y-0072835
Y-0070866
Y-0068898
X-0206693Y-0068898
X-0208661
X-021063
Y-0070866
Y-0072835
X-0208661
X-0206693
Y-0070866
X-0208661
Y-0074803
X-0206693
Y-0076772
X-0208661
X-021063
Y-0074803
Y-007874
X-0208661
X-0206693
X-0198031Y-0077953
X-0175591Y-0100394
Y-0104331
Y-0108268
Y-0112205
X-0171653
X-0167717
Y-0108268
X-0171653
Y-0104331
X-0167717
Y-0100394
X-0171653
X-0139764Y-009252
X-0148819Y-0079134
X-0134646Y-0070866
X-0132677
X-0130709
Y-0068898
X-0132677
X-0134646
X-0112402Y-0069193
X-0110433
Y-0071161
X-0112402
Y-007313
X-0110433
Y-0075098
X-0112402
Y-0077067
X-0110433
Y-0079035
X-0112402
X-0108465
Y-0077067
Y-0075098
Y-007313
Y-0071161
Y-0069193
X-0094291Y-0069291
Y-007126
Y-0073228
Y-0075197
Y-0077165
Y-0079134
Y-0081102
X-009626
Y-0079134
Y-0077165
Y-0075197
X-0099606Y-0077559
X-0083661Y-0073276
X-0083409Y-0070135
X-0082201Y-0083382
X-0083745Y-0086387
X-0080709Y-0097441
X-0075295Y-010187
X-0080709Y-0107283
X-007874Y-0132283
X-0069882Y-0130905
X-0068504Y-0140945
X-0074803Y-0148425
X-0072835Y-0156496
X-0069882Y-0158465
Y-0167394
X-0070866Y-0181102
X-0055118Y-0175197
X-0051181Y-0170275
X-0052205Y-0166746
X-0049213Y-0165354
X-0051181Y-0162402
X-004626
X-0043307Y-0169291
X-0040945Y-0172441
X-0037402Y-0172244
X-0036417Y-0167323
X-0035925Y-0163878
X-0033465Y-0169291
X-0025591Y-017126
X-0028543Y-0163386
X-0028051Y-0151575
X-002552Y-0147638
X-0025591Y-0142717
X-0045362Y-0135219
X-0049213Y-0133071
X-0057087Y-0136811
X-0059055Y-0145669
X-005337Y-0148943
X-0047244Y-0148819
X-0049213Y-0151968
X-0048989Y-0195105
X-0046797Y-0197297
X-0040354Y-0194881
X-0036417Y-0195866
X-0026575Y-0190945
X-0025591Y-0184055
X-0028543Y-0181102
X-0034449
X-0052165Y-0192913
X-003937Y-0208661
X-0028106Y-0219972
X-0073106Y-0209972
X-0059449Y-0101575
X-0057465Y-0094026
X-0055118Y-0096063
X-0050197Y-0095472
X-0048819Y-0090945
X-0044488Y-0092519
X-0045276Y-0097441
X-0040768Y-0099958
X-0039452Y-0090718
X-0038189Y-0083071
X-003937Y-0073819
X-0047206Y-0079262
X-0059055Y-0078346
X-0070619Y-0072917
X-0030315Y-0090551
X-0025591Y-0109449
X-0023622Y-0100394
X-0017913Y-0075787
X-000922Y-0075793
X-0002812Y-0073566
X-0014764Y-0133858
X-0015748Y-0137795
X-0021654
X-0018701Y-0143701
X-0022638Y-0149606
X-0023228Y-0159842
X-0009843Y-0150591
X-0012795Y-0177165
X-0011811Y-0182068
X-0023401Y-0191166
X-0022549Y-0212798
X-0019685Y-0058071
X-0019291Y-0054724
X-0014173Y-0053937
X-0017323Y-0049606
X-0015748Y-0061024
X-0014961Y-0029921
X-0023622Y-003248
X-0037654
X-0034252Y-003622
X-0036417Y-0042323
X-0033465Y-0044291
X-0029528Y-0050197
Y-0054134
X-003937Y-0057087
X-0048819Y-0055118
X-0044882Y-005
X-0044291Y-0044439
Y-0041339
X-0046039Y-0038607
X-004626Y-0035433
X-0047027Y-0032333
X-0060039Y-0044291
X-0061023Y-0047618
X-0065945Y-0049213
X-0065783Y-0054956
X-0065945Y-0061024
X-006496Y-0066929
X-0083661Y-006496
X-0083114Y-0061572
X-0083495Y-0058218
X-0083661Y-0055118
Y-004626
X-0079396Y-0042323
X-0079793Y-0039223
X-0092126Y-0040157
Y-0042913
Y-0045669
X-010315Y-0046063
Y-0044094
Y-0042126
Y-0040157
Y-0033858
X-0108268Y-0034173
Y-0032205
X-0110236
X-0112205
Y-0034173
X-0110236
Y-0036142
X-0112205
X-0114173
X-0116142
X-011811
X-0120079
X-0122047
X-0124016
Y-0034173
Y-0032205
X-0122047
Y-0034173
X-0120079
Y-0032205
X-011811
Y-0034173
X-0116142
Y-0032205
X-0114173
Y-0034173
X-0108268Y-0036142
Y-0043031
X-0110236
X-0112205
X-0114173
X-0116142
X-011811
X-0120079
X-0122047
X-0124016
Y-0045
X-0122047
X-0120079
X-011811
X-0116142
X-0114173
X-0112205
X-0110236
X-0108268
X-0108465Y-005935
X-0110433
Y-0061319
X-0108465
Y-0063287
X-0110433
X-0112402
Y-0061319
Y-005935
Y-0065256
Y-0067224
X-0110433
Y-0065256
X-0108465
Y-0067224
X-0101969Y-0062205
Y-0060236
Y-0058268
X-01
Y-0060236
Y-0062205
X-009626Y-0065354
X-0094291
Y-0067323
X-009626
X-0130709Y-0066929
X-0132677
Y-0064961
X-0130709
X-0134646
Y-0066929
X-0132234Y-0054331
X-0129134
X-0129921Y-0046063
X-0127953
Y-0044094
X-0129921
Y-0042126
X-0127953
Y-0040157
X-0129921
Y-0038189
X-0127953
Y-003622
X-0129921
Y-0034252
X-0127953
Y-0032283
X-0129921
Y-0030315
X-0127953
X-013189
Y-0032283
Y-0034252
Y-003622
Y-0038189
Y-0040157
Y-0042126
Y-0044094
Y-0046063
X-0156496Y-0045
Y-0043031
X-0158465
X-0160433
Y-0045
X-0158465
X-0162402
X-016437
Y-0043031
X-0162402
X-0166339
X-0168307
X-0170276
X-0172244
Y-0045
X-0170276
X-0168307
X-0166339
X-0174409Y-0045079
Y-004311
Y-003622
Y-0034252
Y-0032283
X-0172244Y-0032205
X-0170276
X-0168307
Y-0034173
X-0170276
X-0172244
Y-0036142
X-0170276
X-0168307
X-0166339
Y-0034173
Y-0032205
X-016437
X-0162402
Y-0034173
X-016437
Y-0036142
X-0162402
X-0160433
X-0158465
Y-0034173
X-0160433
Y-0032205
X-0158465
X-0156496
Y-0034173
Y-0036142
X-0158858Y-0023031
X-0157087Y-0018504
X-0156693Y-0011024
Y-0009055
X-0158661
Y-0011024
X-016063
Y-0009055
X-0162598
Y-0011024
X-0164567
Y-0009055
X-0166535
Y-0011024
X-0168504
Y-0009055
X-0170472
Y-0011024
X-0172441
Y-0009055
Y-0007087
X-0170472
X-0168504
X-0166535
X-0164567
X-0162598
X-016063
X-0158661
Y-0005118
X-016063
Y-000315
X-0158661
X-0156693
Y-0005118
Y-0007087
X-0162598Y-0005118
X-0164567
Y-000315
X-0162598
X-0166535
Y-0005118
X-0168504
X-0170472
Y-000315
X-0172441
Y-0005118
X-0174606Y-0005197
Y-0003228
Y-0007165
Y-0009134
Y-0011102
X-0168504Y-000315
X-013937Y-0005512
X-0144882Y-0012992
X-0135827Y-001811
X-0125Y-0011102
Y-0009134
Y-0007165
Y-0005197
Y-0003228
X-0122835Y-000315
Y-0005118
X-0120866
X-0118898
Y-000315
X-0116929
Y-0005118
Y-0007087
X-0118898
X-0120866
X-0122835
Y-0009055
Y-0011024
X-0120866
Y-0009055
X-0118898
Y-0011024
X-0116929
Y-0009055
X-0114961
Y-0011024
X-0112992
Y-0009055
Y-0007087
X-0114961
Y-0005118
X-0112992
Y-000315
X-0114961
X-0111024
X-0109055
Y-0005118
X-0111024
Y-0007087
X-0109055
X-0107087
Y-0005118
Y-000315
Y-0009055
Y-0011024
X-0109055
Y-0009055
X-0111024
Y-0011024
X-0109646Y-0023031
X-0092913Y-0022835
X-0092126Y-0027953
Y-0030709
Y-0033465
X-0083914Y-0019432
X-0069685Y-0016142
X-0053106Y-0009972
X-0097638Y-0012992
X-0120866Y-000315
X-018937Y-0005512
X-0194488Y-0012598
Y-002126
X-0207677Y-0023031
X-0206693Y-0032205
Y-0034173
X-0208661
X-021063
Y-0032205
X-0208661
Y-0036142
X-021063
X-0212598
X-0214567
X-0216535
X-0218504
X-0220472
X-0222441
Y-0034173
Y-0032205
X-0220472
X-0218504
Y-0034173
X-0216535
Y-0032205
X-0214567
Y-0034173
X-0212598
Y-0032205
X-0220472Y-0034173
X-0226378Y-0035039
Y-0037008
Y-0039173
Y-0041339
Y-0043307
Y-0045276
Y-0047244
Y-0049213
Y-0051181
Y-005315
X-0231102Y-0058661
Y-006063
Y-0062598
Y-0064567
Y-0066535
Y-0068504
X-0233071
Y-0066535
Y-0064567
Y-0062598
Y-006063
Y-0058661
X-021063Y-0059055
Y-0061024
Y-0062992
Y-0064961
Y-0066929
X-0208661
Y-0064961
Y-0062992
X-0206693
Y-0064961
Y-0066929
Y-0061024
X-0208661
Y-0059055
X-0206693
X-0201132Y-0054331
X-0198031
X-0192815Y-0064961
Y-0066929
X-0206693Y-0045
X-0208661
X-021063
X-0212598
X-0214567
X-0216535
X-0218504
X-0220472
X-0222441
Y-0043031
X-0220472
X-0218504
X-0216535
X-0214567
X-0212598
X-021063
X-0208661
X-0206693
Y-0036142
X-0226378Y-0033071
Y-0031102
Y-0029134
Y-0027165
Y-0025197
Y-0023228
Y-002126
X-0223031Y-0011102
Y-0009134
Y-0007165
Y-0005197
Y-0003228
X-0220866Y-000315
Y-0005118
X-0218898
X-0216929
Y-000315
X-0214961
Y-0005118
Y-0007087
X-0216929
X-0218898
X-0220866
Y-0009055
Y-0011024
X-0218898
Y-0009055
X-0216929
Y-0011024
X-0214961
Y-0009055
X-0212992
Y-0011024
X-0211024
Y-0009055
Y-0007087
X-0212992
Y-0005118
X-0211024
Y-000315
X-0212992
X-0209055
X-0207087
Y-0005118
X-0209055
Y-0007087
X-0207087
X-0205118
Y-0005118
Y-000315
Y-0009055
Y-0011024
X-0207087
Y-0009055
X-0209055
Y-0011024
X-0218898Y-000315
T02
X-0086122Y-0091043
X-0075295
X-007874Y-0079724
X-0081693
X-0049213Y-0105512
Y-0109055
Y-0126969
X-0015355Y-0108962
X-0007874Y-0111221
X-0017717Y-0044291
T05
X-0074803Y-0186024
Y-017815
Y-0170276
Y-0162402
X-000689Y-0181102
Y-0188976
Y-019685
Y-0204724
X-000689Y-0139764
Y-013189
Y-0124016
Y-0116142
X-0033464Y-0006889
X-0041338
X-0049212
X-0057086
T06
X-0074803Y-0201772
Y-0193898
X-000689Y-0173228
Y-0165354
Y-015748
X-006496Y-0006889
X-0072834
T07
X-0218386Y-0122047
X-0188859Y-0122047
X-0129803Y-0122047
X-0100276Y-0122047
T08
X-0007874Y-0101693
Y-0091693
Y-0081693
T09
X-0224803Y-0099606
X-0011417Y-0224803
Y-0011417
M30
